<svg width="1144" height="704" viewBox="0 0 1144 704" fill="none" xmlns="http://www.w3.org/2000/svg">
<g id="30 - wedding" clip-path="url(#clip0_4_159)">
<path id="Vector" opacity="0.1" d="M687.719 488.17C709.819 486.91 737.239 471.91 758.559 465.29C783.792 457.45 809.126 449.917 834.559 442.69C923.072 417.51 1012.55 396.043 1103 378.29C1111.44 376.637 1119.89 375.017 1128.36 373.43C1115.17 344.935 1094.73 320.397 1069.1 302.26C1069.76 296.025 1070.09 289.76 1070.1 283.49C1070.1 184.35 990.869 103.98 893.099 103.98C863 103.949 833.405 111.714 807.199 126.52C737.999 80.9999 647.679 53.45 548.859 53.45C408.439 53.45 285.169 109.09 215.319 192.85L543.659 248.31L744.999 282.31C515.469 289.16 285.229 295.97 56.3591 279.89C26.1471 309.123 7.02504 347.94 2.26086 389.709C-2.50332 431.478 7.38613 473.605 30.2391 508.89C30.2391 512.48 30.3891 516.03 30.6591 519.56C36.4891 521.24 42.1191 522.85 47.1691 523.92C128.242 541.04 209.836 555.373 291.949 566.92C231.439 604.23 157.749 609.5 87.9491 625.3C121.749 653.2 167.649 670.36 218.229 670.36H971.319C1052.87 670.36 1118.97 613.58 1118.97 543.54C1131.21 523.364 1139.36 500.98 1142.97 477.66C992.069 492.19 839.289 479.54 687.719 488.17Z" fill="#6C63FF"/>
<path id="Vector_2" opacity="0.1" d="M1144 447.79C1144.08 418.924 1137.22 390.462 1123.99 364.805C1110.76 339.148 1091.56 317.048 1068 300.37C1068.65 294.134 1068.99 287.87 1069 281.6C1069 182.45 989.761 102.09 892.001 102.09C861.895 102.049 832.293 109.811 806.081 124.62C736.891 79.1001 646.561 51.55 547.741 51.55C386.951 51.55 248.641 124.49 187.281 229.1C183.871 228.9 180.441 228.79 176.981 228.79C79.2408 228.79 -0.019168 309.15 -0.019168 408.29C-0.0894062 443.308 10.0283 477.591 29.1008 506.96C29.1008 596.16 113.291 668.47 217.101 668.47H970.241C1051.78 668.47 1117.88 611.7 1117.88 541.66C1135.02 513.355 1144.06 480.882 1144 447.79Z" fill="#6C63FF"/>
<path id="Vector_3" opacity="0.1" d="M833.231 0C833.231 0 758.231 38.56 796.831 84.26C796.831 84.26 800.451 94.26 810.991 93.49C810.991 93.49 808.891 89.65 816.991 86.6C819.847 85.4933 822.562 84.0534 825.081 82.31C828.493 79.9649 831.046 76.5694 832.351 72.64C832.351 72.64 847.731 52.16 835.921 14.19C835.921 14.19 837.481 3.46 836.141 1.73L827.001 14.19C827.001 14.19 836.401 20.54 837.461 29.81C837.461 29.81 827.691 14.22 825.561 15.99C825.131 16.35 821.021 22.81 821.021 22.81C821.021 22.81 837.311 33.91 838.501 48.29C838.501 48.29 829.341 28.14 819.431 25.29L813.801 35.41C813.801 35.41 831.601 46.3 833.581 62.62C833.581 62.62 823.281 41.9 812.721 37.71L808.531 48.41C808.531 48.41 825.681 59.41 827.241 72.96C827.241 72.96 812.911 50.21 807.731 50.96C807.731 50.96 804.481 61.02 804.901 64.11C804.901 64.11 817.031 72.26 817.231 80.23C817.231 80.23 806.051 66.05 804.321 66.98C804.321 66.98 803.571 81.21 807.011 88.62C807.011 88.62 801.141 78.04 802.091 66.98C802.091 66.98 796.191 71.98 794.881 78.53C794.881 78.53 791.661 70.69 802.321 63.53C802.321 63.53 803.321 52.46 804.571 51.1C804.571 51.1 793.061 56.68 788.161 63.57C788.161 63.57 789.981 53.3 805.581 48.23L809.581 37.38C809.581 37.38 793.971 43.96 789.141 49.77C789.141 49.77 792.621 39.58 810.811 34.77L816.221 24.77C816.221 24.77 802.341 29.41 795.571 34.71C795.571 34.71 800.831 25.95 817.881 21.97L822.271 15.72C822.271 15.72 812.201 19.29 809.401 20.58C806.601 21.87 806.021 21.22 806.021 21.22C811.137 16.862 817.36 14.0064 824.001 12.97C824.001 12.97 833.921 0.67 833.231 0Z" fill="#6C63FF"/>
<path id="Vector_4" opacity="0.1" d="M733.74 46.92C733.74 46.92 739.58 84.58 764.68 74.54C764.68 74.54 769.47 74.41 770.68 69.78C770.68 69.78 768.73 70.13 768.57 66.24C768.505 64.858 768.276 63.4886 767.89 62.16C767.368 60.3631 766.272 58.7864 764.77 57.67C764.77 57.67 758.19 48.16 740.22 47.81C740.22 47.81 735.84 45.61 734.91 45.94L738.91 51.63C738.91 51.63 742.97 48.5 747.1 49.37C747.1 49.37 739.02 51.37 739.48 52.5C739.57 52.74 741.75 55.42 741.75 55.42C741.75 55.42 748.84 50.02 755.17 51.55C755.17 51.55 745.23 52.61 742.57 56.45L746.11 60.3C746.11 60.3 753.32 54.22 760.6 55.7C760.6 55.7 750.24 57.17 746.94 61.1L750.94 64.42C750.94 64.42 758.09 58.62 764.14 59.89C764.14 59.89 752.34 62.8 751.91 65.12C751.91 65.12 755.76 67.95 757.14 68.2C757.14 68.2 762.36 64.2 765.81 65.2C765.81 65.2 758.14 67.97 758.29 68.84C758.29 68.84 764.29 71.19 767.95 70.78C764.587 71.327 761.139 70.9822 757.95 69.78C758.771 71.7091 760.136 73.3565 761.88 74.52C761.88 74.52 758.06 74.78 756.51 69.19C756.51 69.19 751.91 67.19 751.51 66.45C751.51 66.45 752.26 72.18 754.51 75.27C754.51 75.27 750.36 73.02 750.41 65.61L746.33 62.36C746.33 62.36 746.92 69.99 748.73 72.89C748.73 72.89 744.85 69.94 745.36 61.45L741.85 57.71C741.85 57.71 741.85 64.33 743.18 67.98C743.18 67.98 740.18 64.48 740.89 56.6L738.89 53.83C738.89 53.83 738.99 58.65 739.14 60.04C739.29 61.43 738.93 61.58 738.93 61.58C737.805 58.7559 737.486 55.6746 738.01 52.68C738.01 52.68 734.13 46.72 733.74 46.92Z" fill="#6C63FF"/>
<path id="Vector_5" opacity="0.1" d="M885.84 63.54C885.84 63.54 848.57 55.62 849 82.62C849 82.62 847.41 87.14 851.31 89.9C851.31 89.9 851.68 87.9501 855.37 89.1901C856.683 89.6202 858.043 89.8921 859.42 90.0001C861.285 90.1543 863.148 89.698 864.73 88.7001C864.73 88.7001 875.97 85.93 882.73 69.26C882.73 69.26 886.35 65.9501 886.37 64.9701L879.61 66.7201C879.61 66.7201 881.09 71.6301 878.81 75.1701C878.81 75.1701 879.81 66.92 878.6 66.93C878.34 66.93 875.06 68.02 875.06 68.02C875.06 68.02 877.58 76.5601 873.89 81.9401C873.89 81.9401 876.45 72.2701 873.8 68.4201L868.94 70.35C868.94 70.35 872.06 79.2501 868.08 85.5301C868.08 85.5301 870.4 75.33 867.91 70.85L863.38 73.4C863.38 73.4 866.25 82.1301 862.91 87.3301C862.91 87.3301 864.4 75.28 862.38 74.05C862.38 74.05 858.38 76.64 857.63 77.84C857.63 77.84 859.55 84.16 857.34 87.01C857.34 87.01 857.48 78.85 856.61 78.68C856.61 78.68 852.28 83.44 851.36 87.02C852.039 83.681 853.58 80.578 855.83 78.02C853.734 78.1045 851.707 78.7997 850 80.02C850 80.02 851.12 76.36 856.9 76.9C856.9 76.9 860.42 73.3201 861.24 73.1901C861.24 73.1901 855.61 71.8501 851.93 72.8601C851.93 72.8601 855.5 69.79 862.41 72.48L866.9 69.82C866.9 69.82 859.56 67.6601 856.21 68.3101C856.21 68.3101 860.34 65.74 868.09 69.24L872.84 67.24C872.84 67.24 866.66 64.9 862.77 64.82C862.77 64.82 867.12 63.26 874.22 66.74L877.54 65.8101C877.54 65.8101 873 64.1801 871.65 63.8101C870.3 63.4401 870.28 63.07 870.28 63.07C873.322 63.0213 876.318 63.8212 878.93 65.38C878.93 65.38 885.89 63.97 885.84 63.54Z" fill="#6C63FF"/>
<path id="Vector_6" d="M672.19 669.56C694.398 669.56 712.401 666.515 712.401 662.76C712.401 659.004 694.398 655.96 672.19 655.96C649.983 655.96 631.98 659.004 631.98 662.76C631.98 666.515 649.983 669.56 672.19 669.56Z" fill="#6C63FF"/>
<path id="Vector_7" d="M688.82 651.62C690.656 650.124 691.992 648.105 692.65 645.83C693.15 643.54 692.17 640.78 689.97 639.94C687.51 639 684.88 640.71 682.89 642.43C680.9 644.15 678.61 646.11 676.01 645.75C677.35 644.533 678.352 642.99 678.92 641.271C679.488 639.552 679.601 637.716 679.25 635.94C679.136 635.204 678.825 634.513 678.35 633.94C676.98 632.48 674.51 633.1 672.87 634.25C667.67 637.91 666.22 644.97 666.19 651.33C665.67 649.04 666.11 646.65 666.1 644.33C666.09 642.01 665.44 639.33 663.45 638.1C662.223 637.44 660.843 637.115 659.45 637.16C657.12 637.07 654.51 637.3 652.92 639.01C650.92 641.14 651.45 644.7 653.17 647.01C654.89 649.32 657.52 650.82 659.94 652.43C661.876 653.584 663.527 655.16 664.77 657.04C664.92 657.303 665.04 657.581 665.13 657.87H679.79C683.068 656.203 686.106 654.101 688.82 651.62Z" fill="#6C63FF"/>
<path id="Vector_8" d="M765.19 690.65C787.398 690.65 805.401 687.606 805.401 683.85C805.401 680.095 787.398 677.05 765.19 677.05C742.983 677.05 724.98 680.095 724.98 683.85C724.98 687.606 742.983 690.65 765.19 690.65Z" fill="#6C63FF"/>
<path id="Vector_9" d="M781.82 672.73C783.656 671.235 784.992 669.215 785.65 666.94C786.15 664.64 785.17 661.89 782.97 661.05C780.51 660.11 777.88 661.81 775.89 663.54C773.9 665.27 771.61 667.22 769.01 666.86C770.35 665.643 771.352 664.1 771.92 662.381C772.488 660.662 772.601 658.826 772.25 657.05C772.138 656.314 771.827 655.622 771.35 655.05C769.98 653.59 767.51 654.21 765.87 655.36C760.67 659.02 759.22 666.08 759.19 672.44C758.67 670.15 759.11 667.76 759.1 665.44C759.09 663.12 758.44 660.44 756.45 659.21C755.223 658.55 753.843 658.226 752.45 658.27C750.12 658.18 747.51 658.41 745.92 660.12C743.92 662.25 744.45 665.81 746.17 668.12C747.89 670.43 750.52 671.92 752.94 673.54C754.876 674.694 756.527 676.27 757.77 678.15C757.92 678.413 758.04 678.691 758.13 678.98H772.79C776.066 677.31 779.103 675.208 781.82 672.73Z" fill="#6C63FF"/>
<path id="Vector_10" d="M180.19 683.15C202.398 683.15 220.4 680.106 220.4 676.35C220.4 672.595 202.398 669.55 180.19 669.55C157.983 669.55 139.98 672.595 139.98 676.35C139.98 680.106 157.983 683.15 180.19 683.15Z" fill="#6C63FF"/>
<path id="Vector_11" d="M196.82 665.23C198.656 663.735 199.992 661.715 200.65 659.44C201.15 657.15 200.17 654.39 197.97 653.55C195.51 652.61 192.88 654.32 190.89 656.04C188.9 657.76 186.61 659.73 184.01 659.36C185.35 658.143 186.352 656.6 186.92 654.881C187.488 653.162 187.601 651.326 187.25 649.55C187.136 648.814 186.825 648.123 186.35 647.55C184.98 646.09 182.51 646.71 180.87 647.86C175.67 651.52 174.22 658.59 174.19 664.94C173.67 662.65 174.11 660.26 174.1 657.94C174.09 655.62 173.44 652.94 171.45 651.71C170.223 651.05 168.843 650.726 167.45 650.77C165.12 650.68 162.51 650.92 160.92 652.63C158.92 654.75 159.45 658.31 161.17 660.63C162.89 662.95 165.52 664.44 167.94 666.05C169.876 667.204 171.527 668.78 172.77 670.66C172.92 670.923 173.04 671.201 173.13 671.49H187.79C191.069 669.82 194.106 667.715 196.82 665.23Z" fill="#6C63FF"/>
<path id="Vector_12" d="M561.931 661C561.936 660.91 561.936 660.82 561.931 660.73C561.994 659.454 561.75 658.182 561.221 657.02C559.601 653.74 555.701 653.2 552.391 652.63C546.94 651.695 541.717 649.73 537.001 646.84C533.871 644.93 530.661 642.12 530.271 638.17C530.271 637.36 530.331 636.55 530.271 635.81C530.271 635.27 530.271 634.74 530.271 634.23C530.271 632.12 530.151 630.18 528.581 629.8C519.201 627.48 511.091 619.49 507.861 609.36C507.171 607.2 506.691 604.95 505.801 602.88C502.971 596.32 496.671 592.76 491.911 587.8C485.651 581.27 482.021 572.19 479.391 563.08C476.761 553.97 474.941 544.54 471.491 535.77C465.741 521.14 460.551 505.56 450.801 493.87C449.331 492.1 447.711 490.29 446.001 488.46C437.331 475.8 431.441 460.83 423.931 447.17C422.498 444.37 420.75 441.743 418.721 439.34C416.121 436.46 412.901 434.4 409.901 432.05C395.451 420.77 386.211 403.05 373.761 389.12C371.591 386.69 368.211 383.27 366.611 380.34C366.601 378.63 366.749 376.923 367.051 375.24C367.851 371.09 370.001 367.15 369.631 362.92C369.501 362.096 369.431 361.264 369.421 360.43C369.523 359.469 369.78 358.53 370.181 357.65C370.825 355.743 371.677 353.912 372.721 352.19C374.533 349.406 375.726 346.265 376.221 342.98C378.711 340.62 379.791 336.3 382.901 335.21C384.631 334.61 386.901 335.02 387.901 333.31C388.19 332.724 388.35 332.083 388.371 331.43C388.686 328.053 388.398 324.647 387.521 321.37C387.772 319.639 387.839 317.886 387.721 316.14C387.38 311.788 386.137 307.555 384.071 303.71C382.801 301.29 381.071 298.87 378.601 298.31C378.061 298.19 377.511 298.16 376.991 298C373.811 297.07 372.711 292.16 369.841 290.64C373.531 292.64 377.301 294.9 380.771 293.22C385.131 291.09 385.491 284.45 385.161 279.15L384.001 259.52C383.381 249.52 382.601 238.91 377.451 230.67C372.811 223.23 365.211 218.76 357.451 215.97C352.211 214.08 346.451 212.87 341.261 214.8C341.571 214.58 341.871 214.36 342.171 214.16C341.532 214.35 340.907 214.584 340.301 214.86C337.579 216.243 335.051 217.978 332.781 220.02C334.039 216.836 334.684 213.443 334.681 210.02C334.71 204.898 333.258 199.877 330.501 195.56L336.361 190.63L334.991 188.4L337.571 185.94C337.409 185.677 337.182 185.46 336.913 185.31C336.643 185.159 336.34 185.08 336.031 185.08C335.911 185.07 335.791 185.07 335.671 185.08C335.763 184.345 335.702 183.6 335.491 182.89L335.311 183.06C335.155 182.449 334.913 181.863 334.591 181.32H334.801C334.677 181.095 334.54 180.878 334.391 180.67C334.391 180.77 334.391 180.88 334.391 180.98C333.547 179.738 332.515 178.634 331.331 177.71C326.851 174.03 321.721 170.98 316.171 170.57C313.471 170.37 310.761 170.8 308.061 170.57C304.421 170.32 300.891 168.94 297.241 168.79C293.591 168.64 289.481 170.13 287.971 173.79C287.321 175.39 287.231 177.19 286.741 178.84C285.651 182.52 282.741 185.07 280.271 187.79C277.801 190.51 275.511 194.16 276.191 197.96C276.462 199.169 276.885 200.338 277.451 201.44L290.121 228.8C290.173 230.802 290.113 232.805 289.941 234.8C289.861 235.66 289.751 236.53 289.611 237.41C289.551 237.78 289.481 238.16 289.391 238.54C287.895 238.792 286.539 239.573 285.571 240.74C285.209 241.195 284.98 241.742 284.911 242.32C284.983 243.237 285.144 244.144 285.391 245.03C285.411 246.21 285.132 247.376 284.581 248.42C283.311 251.37 281.961 254.37 279.801 256.58C278.921 257.49 277.921 258.25 277.031 259.15C276.016 260.23 275.089 261.391 274.261 262.62C272.411 265.22 270.501 267.94 269.821 271.18C268.701 276.48 266.441 281.52 264.821 286.69C264.59 287.107 264.304 287.49 263.971 287.83C262.971 288.77 261.691 289.17 260.711 290.09C258.511 292.17 258.711 295.97 259.251 299.14C261.191 310.92 264.591 322.39 265.941 334.27C266.481 338.93 266.701 343.67 267.741 348.22C268.124 350.186 268.852 352.068 269.891 353.78C269.741 358.25 270.201 362.78 268.611 366.9C267.871 368.76 266.841 370.46 265.941 372.24C264.695 374.805 263.59 377.435 262.631 380.12L257.201 394.42C256.201 397.13 255.141 399.86 254.361 402.68C252.111 410.89 252.101 419.68 252.421 428.23C252.462 428.494 252.405 428.765 252.261 428.99C252.101 429.19 251.721 429.13 251.711 428.86C251.641 429.36 251.361 430.21 251.301 430.7C253.721 431.88 256.441 431.5 259.141 431.21C259.141 431.47 259.141 431.74 259.141 432C259.136 432.063 259.136 432.127 259.141 432.19C259.165 433.005 259.249 433.817 259.391 434.62C259.391 434.62 259.391 434.62 259.391 434.68C259.461 435.09 259.551 435.49 259.641 435.89C259.641 436 259.641 436.1 259.721 436.21C259.811 436.57 259.911 436.94 260.021 437.29C260.081 437.48 260.131 437.65 260.191 437.83C260.251 438.01 260.341 438.27 260.421 438.48C260.501 438.69 260.511 438.75 260.561 438.88C261.221 440.6 262.011 442.26 262.761 443.94C264.049 446.539 264.91 449.328 265.311 452.2C265.371 452.86 265.391 453.52 265.421 454.2V454.89C265.441 455.603 265.501 456.314 265.601 457.02C265.781 458.16 266.121 459.25 266.391 460.37C266.551 461.03 266.671 461.71 266.791 462.37C266.911 463.03 267.021 463.9 267.121 464.66C267.874 470.313 268.431 475.98 268.791 481.66C268.881 483.03 268.961 484.41 269.031 485.78C269.501 495.78 269.381 505.78 269.261 515.84C269.194 519.122 268.86 522.393 268.261 525.62C266.591 535.09 263.141 544.29 260.861 553.69C260.621 554.69 260.401 555.69 260.191 556.69C259.683 558.809 259.349 560.967 259.191 563.14C259.176 566.038 259.437 568.931 259.971 571.78C260.464 575.24 260.844 578.717 261.111 582.21C259.267 585.464 258.065 589.043 257.571 592.75C256.361 603.88 246.931 612.23 245.651 623.36C245.566 624.067 245.536 624.779 245.561 625.49C245.531 625.95 245.531 626.411 245.561 626.87C245.427 628.052 245.529 629.248 245.861 630.39C246.335 631.587 247.13 632.63 248.158 633.405C249.187 634.179 250.409 634.655 251.691 634.78C254.141 635.09 256.591 634.47 259.031 634.06C260.131 633.87 261.231 633.75 262.331 633.64C262.361 634.019 262.361 634.401 262.331 634.78C261.813 635.709 261.372 636.679 261.011 637.68C260.394 638.852 260.01 640.132 259.881 641.45C259.838 643.006 260.229 644.544 261.011 645.89C263.471 650.38 268.381 652.49 273.081 652.89C277.781 653.29 282.451 652.26 287.151 652.01H287.951C288.113 652.452 288.31 652.88 288.541 653.29C290.991 657.78 295.911 659.89 300.601 660.29C305.291 660.69 309.981 659.67 314.681 659.42C316.081 659.35 317.491 659.35 318.891 659.25C321.764 659.033 324.606 658.513 327.371 657.7C329.36 660.529 331.643 663.14 334.181 665.49C342.421 672.49 353.811 672.09 364.111 670.72C374.411 669.35 386.021 666.81 395.411 671.72C402.611 670.93 406.901 682.36 414.131 682.65C417.451 682.78 420.431 680.45 422.831 677.89C423.655 676.816 424.716 675.947 425.931 675.35C426.935 675.052 427.999 675.017 429.021 675.25C434.623 676.264 439.656 679.303 443.161 683.79C444.981 686.07 446.841 688.94 449.571 689C452.021 689 454.191 686.69 456.621 687C458.271 687.22 459.621 688.63 461.051 689.5C465.531 692.15 471.051 689.7 475.351 686.78C479.651 683.86 484.251 680.33 489.291 680.86C492.561 681.2 495.471 683.24 498.521 684.57C507.921 688.67 519.451 685.57 526.191 677.21C527.261 675.87 528.361 674.32 529.941 673.97C530.997 673.84 532.068 673.999 533.041 674.43C538.691 676.31 544.631 678.04 550.411 676.76C556.191 675.48 561.691 670.25 561.811 663.67C561.819 663.269 561.802 662.869 561.761 662.47C561.761 662.22 561.811 661.96 561.811 661.7C561.866 661.47 561.906 661.236 561.931 661ZM334.931 285.28C334.529 286.333 333.835 287.249 332.931 287.92C332.851 287.49 332.771 287.06 332.681 286.62C332.321 284.76 331.911 282.91 331.471 281.07C332.805 281.926 334.23 282.631 335.721 283.17C335.431 283.87 335.191 284.62 334.901 285.28H334.931ZM320.271 240.14C320.271 240.21 320.271 240.28 320.271 240.35C320.271 243.87 321.491 245.88 323.271 247.03C321.285 250.882 320.256 255.156 320.271 259.49C319.591 258.96 318.861 258.49 318.271 257.9C317.176 256.773 316.286 255.463 315.641 254.03C315.928 254.079 316.222 254.033 316.481 253.9C316.991 253.55 316.971 252.73 316.901 252.07C316.225 245.791 317.072 239.442 319.371 233.56C320.539 233.148 321.668 232.629 322.741 232.01C321.254 234.424 320.411 237.178 320.291 240.01C320.291 240.01 320.241 240.09 320.241 240.14H320.271ZM369.211 290.33C368.693 292.269 368.407 294.263 368.361 296.27C366.549 293.491 363.876 291.384 360.751 290.27C360.383 290.16 360.009 290.07 359.631 290C359.864 289.768 360.115 289.554 360.381 289.36C363.251 287.36 366.481 288.76 369.781 290.51C369.585 290.437 369.385 290.377 369.181 290.33H369.211Z" fill="url(#paint0_linear_4_159)"/>
<path id="Vector_13" d="M250.401 653.21C250.36 654.813 250.811 656.39 251.691 657.73C254.481 662.3 260.081 664.44 265.411 664.84C270.741 665.24 276.081 664.2 281.411 663.95C283.011 663.88 284.611 663.87 286.201 663.78C294.481 663.28 302.391 660.35 310.201 657.45C311.481 656.98 312.971 656.22 313.041 654.87C313.009 654.404 312.873 653.95 312.645 653.542C312.417 653.134 312.101 652.782 311.721 652.51C310.7 651.617 309.55 650.882 308.311 650.33C303.971 648.42 298.771 648.92 294.651 646.57C293.741 646.05 292.911 645.41 291.961 644.98C290.85 644.533 289.676 644.263 288.481 644.18C283.324 643.594 278.108 643.766 273.001 644.69C269.111 645.4 265.281 646.55 261.331 646.83C259.835 646.959 258.328 646.861 256.861 646.54C255.861 646.31 254.591 645.41 253.641 646.01C252.691 646.61 252.161 648.52 251.711 649.37C251.01 650.544 250.564 651.852 250.401 653.21Z" fill="#3F3D56"/>
<path id="Vector_14" opacity="0.05" d="M250.401 653.21C250.36 654.813 250.811 656.39 251.691 657.73C254.481 662.3 260.081 664.44 265.411 664.84C270.741 665.24 276.081 664.2 281.411 663.95C283.011 663.88 284.611 663.87 286.201 663.78C294.481 663.28 302.391 660.35 310.201 657.45C311.481 656.98 312.971 656.22 313.041 654.87C313.009 654.404 312.873 653.95 312.645 653.542C312.417 653.134 312.101 652.782 311.721 652.51C310.7 651.617 309.55 650.882 308.311 650.33C303.971 648.42 298.771 648.92 294.651 646.57C293.741 646.05 292.911 645.41 291.961 644.98C290.85 644.533 289.676 644.263 288.481 644.18C283.324 643.594 278.108 643.766 273.001 644.69C269.111 645.4 265.281 646.55 261.331 646.83C259.835 646.959 258.328 646.861 256.861 646.54C255.861 646.31 254.591 645.41 253.641 646.01C252.691 646.61 252.161 648.52 251.711 649.37C251.01 650.544 250.564 651.852 250.401 653.21Z" fill="black"/>
<path id="Vector_15" d="M281.72 660.71C281.675 662.314 282.125 663.892 283.01 665.23C285.8 669.8 291.39 671.94 296.73 672.34C302.07 672.74 307.4 671.7 312.73 671.45C314.33 671.38 315.92 671.37 317.52 671.28C325.8 670.78 333.71 667.85 341.52 664.95C342.8 664.47 344.29 663.72 344.36 662.36C344.327 661.895 344.192 661.443 343.964 661.037C343.736 660.63 343.42 660.28 343.04 660.01C342.021 659.114 340.871 658.378 339.63 657.83C335.29 655.92 330.09 656.41 325.97 654.06C325.06 653.55 324.23 652.9 323.28 652.48C322.168 652.034 320.994 651.761 319.8 651.67C314.642 651.087 309.427 651.263 304.32 652.19C300.43 652.9 296.6 654.05 292.65 654.32C291.154 654.458 289.647 654.363 288.18 654.04C287.18 653.81 285.91 652.91 284.96 653.51C284.01 654.11 283.47 656.02 283.03 656.87C282.325 658.042 281.878 659.351 281.72 660.71Z" fill="#3F3D56"/>
<path id="Vector_16" d="M265.36 286.37C264.996 285.362 264.333 284.49 263.46 283.87C261.37 282.71 258.9 284.87 257.99 287.04C257.08 289.21 256.78 291.87 254.99 293.44C253.9 294.44 252.4 294.8 251.28 295.74C248.78 297.85 249.03 301.74 249.62 304.94C251.83 316.94 255.7 328.6 257.24 340.69C257.85 345.44 258.1 350.26 259.24 354.89C259.94 357.63 261.05 360.41 263.24 362.19C265.43 363.97 268.93 364.4 270.99 362.46C267.264 352.363 265.404 341.672 265.5 330.91C265.56 323.91 266.5 316.91 266.69 309.83C266.9 303.65 266.59 297.46 266.28 291.28C266.308 289.693 266.009 288.116 265.4 286.65C265.077 285.926 264.546 285.314 263.875 284.892C263.204 284.47 262.422 284.257 261.63 284.28" fill="#FBBEBE"/>
<path id="Vector_17" d="M310.26 239.3C324.161 239.3 335.43 228.031 335.43 214.13C335.43 200.229 324.161 188.96 310.26 188.96C296.359 188.96 285.09 200.229 285.09 214.13C285.09 228.031 296.359 239.3 310.26 239.3Z" fill="#CB8C8E"/>
<path id="Vector_18" d="M344.18 289.8C358.125 289.8 369.43 278.495 369.43 264.55C369.43 250.605 358.125 239.3 344.18 239.3C330.234 239.3 318.93 250.605 318.93 264.55C318.93 278.495 330.234 289.8 344.18 289.8Z" fill="#FBBEBE"/>
<path id="Vector_19" d="M354.569 289C354.789 291 355.569 293.33 357.479 293.84C358.365 293.946 359.257 293.996 360.149 293.99C360.86 294.122 361.529 294.421 362.101 294.862C362.673 295.304 363.132 295.876 363.439 296.53C364.042 297.853 364.281 299.314 364.129 300.76C363.964 302.959 363.257 305.082 362.069 306.94C359.818 310.163 356.561 312.548 352.809 313.72C349.085 314.868 345.238 315.576 341.349 315.83C339.625 316.108 337.863 316.054 336.159 315.67C335.087 315.32 334.075 314.807 333.159 314.15C330.312 312.241 327.819 309.852 325.789 307.09C324.298 305.168 323.218 302.958 322.619 300.6C322.044 298.232 322.376 295.736 323.549 293.6C323.909 292.893 324.503 292.331 325.229 292.01C327.369 291.24 329.309 293.89 331.579 293.95C333.379 293.95 334.799 292.41 335.579 290.79C336.359 289.17 336.769 287.34 337.929 285.97C339.279 284.36 341.399 283.65 343.429 283.11C346.769 282.23 351.149 280.9 354.629 281.27C356.539 281.46 355.289 282.6 354.849 283.98C354.407 285.616 354.312 287.325 354.569 289Z" fill="#FBBEBE"/>
<path id="Vector_20" d="M330.769 315.35C333.839 313.97 335.539 310.64 338.279 308.67C340.579 307.02 343.449 306.43 346.079 305.38C348.748 304.315 351.191 302.754 353.279 300.78C355.179 298.99 356.869 296.78 359.279 295.9C361.121 295.315 363.098 295.315 364.939 295.9C370.129 297.34 374.119 301.66 376.439 306.51C378.759 311.36 379.649 316.76 380.519 322.07L381.819 330.07C382.784 334.957 383.25 339.929 383.209 344.91C382.999 349.91 381.699 354.91 378.669 358.91C377.497 360.643 376.527 362.505 375.779 364.46C375.331 365.349 375.044 366.311 374.929 367.3C374.937 368.148 375.014 368.994 375.159 369.83C375.579 374.13 373.159 378.14 372.219 382.36C371.732 385.189 371.585 388.066 371.779 390.93C371.755 391.303 371.831 391.676 371.999 392.01C372.214 392.311 372.509 392.546 372.849 392.69C373.509 393.04 374.189 393.37 374.849 393.69C369.331 394.916 363.692 395.513 358.039 395.47C348.129 395.24 338.459 392.47 328.609 391.32C328.239 386.8 329.479 382.44 329.759 377.92C329.816 374.97 329.632 372.02 329.209 369.1C328.386 361.117 328.463 353.066 329.439 345.1C329.779 342.3 330.239 339.51 330.369 336.69C330.519 333.35 330.219 330 330.459 326.69C330.689 323.52 331.459 320.38 331.539 317.2C331.634 316.85 331.609 316.478 331.47 316.144C331.33 315.809 331.084 315.53 330.769 315.35Z" fill="#F4F6FB"/>
<path id="Vector_21" d="M341.93 386.41C352.29 386.47 361.42 386.77 371.75 387.48C373.57 390.48 369.21 398.57 371.68 401.05C385.84 415.24 388.99 434.31 405.43 445.8C408.84 448.18 418.43 450.11 421.43 453.05C423.78 455.38 420.19 453.72 421.93 456.55C431.93 472.87 454.48 488.98 467.55 503.01C478.63 514.9 484.55 530.76 491.09 545.65C495.01 554.56 497.09 564.17 500.09 573.44C503.09 582.71 507.22 591.94 514.34 598.58C519.76 603.64 526.93 607.26 530.14 613.93C531.044 616.085 531.828 618.289 532.49 620.53C534.382 625.683 537.528 630.283 541.646 633.913C545.763 637.543 550.721 640.089 556.07 641.32C558.98 641.96 557.65 646.81 557.95 649.78C558.36 653.84 562.03 656.72 565.61 658.67C571.056 661.628 576.974 663.621 583.1 664.56C586.86 665.13 591.3 665.69 593.1 669.02C593.697 670.187 593.977 671.491 593.91 672.8C593.78 679.5 587.51 684.8 580.91 686.12C574.31 687.44 567.57 685.66 561.15 683.75C560.029 683.309 558.818 683.148 557.62 683.28C555.82 683.63 554.62 685.21 553.35 686.58C549.431 690.797 544.35 693.758 538.75 695.091C533.149 696.424 527.279 696.069 521.88 694.07C518.4 692.71 515.1 690.64 511.38 690.29C505.64 689.75 500.45 693.35 495.51 696.29C490.57 699.23 484.33 701.75 479.24 699.05C477.56 698.17 476.08 696.74 474.24 696.51C471.47 696.19 469 698.59 466.24 698.51C463.14 698.45 461.01 695.51 458.94 693.21C454.73 688.569 449.04 685.533 442.84 684.62C441.679 684.377 440.476 684.412 439.33 684.72C437.976 685.306 436.769 686.187 435.8 687.3C433.07 689.91 429.68 692.3 425.91 692.14C417.68 691.85 412.79 680.22 404.6 681.02C393.92 676.02 380.7 678.6 368.99 680.02C357.28 681.44 344.31 681.85 334.93 674.7C329.99 670.92 326.64 665.43 322.03 661.24C314.75 654.62 304.93 651.73 295.46 649.03C280.46 644.75 264.88 640.43 249.46 642.76C246.68 643.18 243.89 643.76 241.1 643.49C238.31 643.22 235.45 641.65 234.47 639.03C234.042 637.686 233.946 636.259 234.19 634.87C235.64 623.55 246.37 615.05 247.74 603.72C248.43 598.1 251.45 593.18 254.67 588.53C257.41 584.372 259.911 580.062 262.16 575.62C267.49 565.62 272.84 555.62 276.86 545.06C281.09 533.95 283.8 522.33 286.5 510.75C289.1 499.58 290.34 488.14 292.21 476.82C293.57 468.59 295.7 460.51 297.83 452.44C304.13 428.6 310.47 404.62 320.83 382.26C327.57 384.16 335 386.37 341.93 386.41Z" fill="#E3E8F4"/>
<path id="Vector_22" d="M341.93 389.41C352.29 389.47 361.42 388.77 371.75 389.48C373.57 392.48 377.42 395.94 379.89 398.41C394.05 412.62 404.57 430.62 421 442.1C424.41 444.49 428.07 446.59 431 449.52C433.29 451.94 435.281 454.626 436.93 457.52C446.93 473.85 454.44 492.02 467.51 506.05C478.59 517.94 484.51 533.8 491.05 548.69C494.97 557.6 497.05 567.21 500.05 576.48C503.05 585.75 507.18 594.98 514.3 601.62C519.72 606.68 526.89 610.3 530.1 616.97C531.004 619.125 531.788 621.329 532.45 623.57C534.342 628.723 537.488 633.323 541.606 636.953C545.723 640.583 550.681 643.129 556.03 644.36C558.94 645 557.61 649.85 557.91 652.82C558.32 656.88 561.99 659.76 565.57 661.71C571.016 664.669 576.934 666.661 583.06 667.6C586.82 668.17 591.26 668.73 593.06 672.06C593.657 673.227 593.937 674.531 593.87 675.84C593.74 682.54 587.47 687.84 580.87 689.16C574.27 690.48 567.53 688.7 561.11 686.79C559.989 686.349 558.778 686.188 557.58 686.32C555.78 686.67 554.58 688.25 553.31 689.62C549.391 693.837 544.31 696.798 538.71 698.131C533.109 699.464 527.239 699.109 521.84 697.11C518.36 695.75 515.06 693.68 511.34 693.33C505.6 692.79 500.41 696.39 495.47 699.33C490.53 702.27 484.29 704.79 479.2 702.09C477.52 701.21 476.04 699.78 474.2 699.55C471.43 699.23 468.96 701.63 466.2 701.55C463.1 701.49 460.97 698.55 458.9 696.25C454.706 691.602 449.031 688.552 442.84 687.62C441.679 687.377 440.476 687.412 439.33 687.72C437.976 688.306 436.769 689.187 435.8 690.3C433.07 692.91 429.68 695.3 425.91 695.14C417.68 694.85 412.79 683.22 404.6 684.02C393.92 679.02 380.7 681.6 368.99 683.02C357.28 684.44 344.31 684.85 334.93 677.7C329.99 673.92 326.64 668.43 322.03 664.24C314.75 657.62 304.93 654.73 295.46 652.03C280.46 647.75 264.88 643.43 249.46 645.76C246.68 646.18 243.89 646.76 241.1 646.49C238.31 646.22 235.45 644.65 234.47 642.03C234.042 640.686 233.946 639.259 234.19 637.87C235.64 626.55 246.37 618.05 247.74 606.72C248.43 601.1 251.45 596.18 254.67 591.53C257.41 587.372 259.911 583.062 262.16 578.62C267.49 568.62 272.84 558.62 276.86 548.06C281.09 536.95 283.8 525.33 286.5 513.75C289.1 502.58 290.34 491.14 292.21 479.82C293.57 471.59 295.7 463.51 297.83 455.44C304.13 431.6 310.47 407.62 320.83 385.26C327.57 387.16 335 389.37 341.93 389.41Z" fill="#E3E8F4"/>
<path id="Vector_23" d="M341.93 387.41C352.29 387.47 361.42 386.77 371.75 387.48C373.57 390.48 377.42 393.94 379.89 396.41C394.05 410.62 404.57 428.62 421 440.1C424.41 442.49 428.07 444.59 431 447.52C433.29 449.94 435.281 452.626 436.93 455.52C446.93 471.85 454.44 490.02 467.51 504.05C478.59 515.94 484.51 531.8 491.05 546.69C494.97 555.6 497.05 565.21 500.05 574.48C503.05 583.75 507.18 592.98 514.3 599.62C519.72 604.68 526.89 608.3 530.1 614.97C531.004 617.125 531.788 619.329 532.45 621.57C534.342 626.723 537.488 631.323 541.606 634.953C545.723 638.583 550.681 641.129 556.03 642.36C558.94 643 557.61 647.85 557.91 650.82C558.32 654.88 561.99 657.76 565.57 659.71C571.016 662.669 576.934 664.661 583.06 665.6C586.82 666.17 591.26 666.73 593.06 670.06C593.657 671.227 593.937 672.531 593.87 673.84C593.74 680.54 587.47 685.84 580.87 687.16C574.27 688.48 567.53 686.7 561.11 684.79C559.989 684.349 558.778 684.188 557.58 684.32C555.78 684.67 554.58 686.25 553.31 687.62C549.391 691.837 544.31 694.798 538.71 696.131C533.109 697.464 527.239 697.109 521.84 695.11C518.36 693.75 515.06 691.68 511.34 691.33C505.6 690.79 500.41 694.39 495.47 697.33C490.53 700.27 484.29 702.79 479.2 700.09C477.52 699.21 476.04 697.78 474.2 697.55C471.43 697.23 468.96 699.63 466.2 699.55C463.1 699.49 460.97 696.55 458.9 694.25C454.706 689.602 449.031 686.552 442.84 685.62C441.679 685.377 440.476 685.412 439.33 685.72C437.976 686.306 436.769 687.187 435.8 688.3C433.07 690.91 429.68 693.3 425.91 693.14C417.68 692.85 412.79 681.22 404.6 682.02C393.92 677.02 380.7 679.6 368.99 681.02C357.28 682.44 344.31 682.85 334.93 675.7C329.99 671.92 326.64 666.43 322.03 662.24C314.75 655.62 304.93 652.73 295.46 650.03C280.46 645.75 264.88 641.43 249.46 643.76C246.68 644.18 243.89 644.76 241.1 644.49C238.31 644.22 235.45 642.65 234.47 640.03C234.042 638.686 233.946 637.259 234.19 635.87C235.64 624.55 246.37 616.05 247.74 604.72C248.43 599.1 251.45 594.18 254.67 589.53C257.41 585.372 259.911 581.062 262.16 576.62C267.49 566.62 272.84 556.62 276.86 546.06C281.09 534.95 283.8 523.33 286.5 511.75C289.1 500.58 290.34 489.14 292.21 477.82C293.57 469.59 295.7 461.51 297.83 453.44C304.13 429.6 310.47 405.62 320.83 383.26C327.57 385.16 335 387.37 341.93 387.41Z" fill="#F4F6FB"/>
<path id="Vector_24" d="M251.741 433.3C248.441 436.91 249.191 442.65 251.121 447.14C253.051 451.63 255.981 455.84 256.521 460.7C256.701 462.32 256.601 463.96 256.881 465.57C257.091 466.73 257.481 467.84 257.781 468.98C258.145 470.423 258.426 471.885 258.621 473.36C259.681 480.48 260.401 487.66 260.781 494.86C261.331 505.04 261.191 515.25 261.051 525.45C260.851 539.72 254.051 553.08 250.741 566.96C250.158 569.107 249.777 571.303 249.601 573.52C249.586 576.472 249.877 579.418 250.471 582.31C253.393 600.514 252.799 619.11 248.721 637.09C251.721 639.45 253.811 643.41 253.091 647.15C259.541 648.28 266.291 649.39 272.501 647.34C276.251 646.11 279.621 643.77 283.501 643.04C286.501 642.49 289.971 642.77 292.091 640.59C292.952 639.572 293.58 638.377 293.931 637.09C301.251 615.79 299.201 592.6 298.791 570.09C298.571 557.99 298.791 545.88 298.331 533.79C297.427 512.234 294.045 490.853 288.251 470.07C285.451 460.07 282.751 450.07 277.251 441.2C276.143 439.149 274.576 437.383 272.671 436.04C270.581 434.76 268.051 434.45 265.611 434.17C260.511 433.62 256.841 433.88 251.741 433.3Z" fill="#3F3D56"/>
<path id="Vector_25" opacity="0.05" d="M293.931 637.1C293.578 638.383 292.95 639.574 292.091 640.59C289.971 642.78 286.491 642.49 283.501 643.05C283.121 643.12 282.741 643.21 282.371 643.31C278.961 644.22 275.881 646.23 272.511 647.31C266.291 649.31 259.511 648.25 253.091 647.12C253.811 643.38 251.721 639.41 248.721 637.05C252.802 619.074 253.399 600.481 250.481 582.28C249.879 579.389 249.584 576.443 249.601 573.49C249.781 571.273 250.162 569.078 250.741 566.93C254.031 553.04 260.851 539.68 261.051 525.41C261.191 515.21 261.331 505 260.791 494.82C260.397 487.62 259.674 480.453 258.621 473.32C258.424 471.846 258.147 470.384 257.791 468.94C257.481 467.81 257.091 466.69 256.891 465.53C256.601 463.93 256.701 462.28 256.521 460.66C255.981 455.8 253.061 451.6 251.121 447.11C250.311 445.26 249.785 443.298 249.561 441.29C249.331 439.878 249.406 438.434 249.782 437.053C250.159 435.673 250.826 434.39 251.741 433.29C255.171 433.67 257.941 433.66 260.941 433.79C262.411 433.85 263.941 433.95 265.611 434.14C268.051 434.41 270.611 434.72 272.681 436.01C274.584 437.352 276.149 439.119 277.251 441.17C277.791 442.04 278.301 442.92 278.791 443.81C283.281 451.98 285.731 460.98 288.251 470.03C294.044 490.813 297.427 512.194 298.331 533.75C298.841 545.84 298.571 557.95 298.791 570.06C299.211 592.62 301.251 615.79 293.931 637.1Z" fill="black"/>
<path id="Vector_26" d="M330.8 441.14C330.8 442.89 330.8 444.65 330.8 446.4C330.754 463.293 330.71 480.183 330.67 497.07C330.67 504.02 330.67 510.99 329.95 517.9C328.18 535.9 321.6 553.33 322.3 571.35C322.8 584.44 323.3 597.68 320.67 610.52C319.67 615.44 318.21 620.28 317.49 625.25C316.77 630.22 316.85 635.46 318.82 640.09C320.24 643.4 322.63 646.53 322.5 650.09C322.353 651.62 321.848 653.094 321.027 654.394C320.205 655.693 319.09 656.781 317.77 657.57C315.112 659.116 312.164 660.099 309.11 660.46C305.3 661.091 301.442 661.389 297.58 661.35C292.05 661.29 285.75 660.08 282.89 655.35C280.97 652.17 281.12 648.13 282.04 644.52C282.15 644.1 282.26 643.69 282.38 643.28C283.32 640.13 284.66 637.1 285.38 633.9C286.537 628.849 286.164 623.569 284.31 618.73C283.97 617.83 282.9 616.13 281.94 616.24C280.41 612.29 280.18 607.97 279.94 603.73L278.53 575.03C278.23 568.78 277.93 562.45 279.21 556.33C280.21 551.33 282.34 546.57 282.94 541.5C283.209 538.455 283.192 535.392 282.89 532.35C281.769 516.669 279.739 501.066 276.81 485.62C276.714 484.834 276.451 484.077 276.04 483.4C275.38 482.48 274.23 482.05 273.42 481.25C271.72 479.59 271.88 476.88 271.48 474.53C270.76 470.29 267.95 466.77 265.78 463.07C262.327 457.107 260.393 450.386 260.15 443.5C260.027 440.244 260.293 436.984 260.94 433.79C261.02 433.36 261.12 432.93 261.22 432.5C283.016 431.108 304.899 432.452 326.36 436.5C327.93 436.79 329.69 437.24 330.42 438.66C330.74 439.446 330.87 440.295 330.8 441.14Z" fill="#3F3D56"/>
<path id="Vector_27" d="M453.579 519.85C464.339 538.79 475.139 557.77 483.699 577.8C490.649 594.05 496.349 611.36 508.009 624.64C518.929 637.07 534.009 644.83 548.819 652.3L535.559 640.62C522.249 628.87 508.659 616.79 500.209 601.18C495.609 592.68 492.689 583.39 489.209 574.34C480.34 551.064 467.99 529.269 452.579 509.7C448.295 504.077 443.687 498.708 438.779 493.62C442.169 502.62 448.799 511.45 453.579 519.85Z" fill="#E3E8F4"/>
<path id="Vector_28" d="M398.689 649.62C401.929 656.28 405.229 663.04 410.169 668.56C410.589 665.26 408.329 662.3 406.539 659.5C403.299 654.41 401.329 648.68 399.359 643.01C397.539 637.76 395.849 630.52 391.979 626.37C389.999 633.49 395.689 643.5 398.689 649.62Z" fill="#E3E8F4"/>
<path id="Vector_29" d="M361.181 524.88C362.121 529.88 362.671 534.88 363.931 539.77C365.168 544.163 366.688 548.472 368.481 552.67L389.561 605.21C389.381 598.07 385.561 591.61 383.131 584.91C380.131 576.68 379.051 567.91 376.601 559.45C374.601 552.59 371.701 546.04 369.601 539.21C366.681 529.58 365.451 519.52 363.161 509.72C361.092 501.238 358.511 492.889 355.431 484.72C354.031 480.86 352.431 476.85 349.341 474.18C346.251 471.51 341.071 470.75 338.151 473.64C334.041 477.71 340.271 480.26 342.321 482.91C351.8 495.243 358.253 509.629 361.161 524.91L361.181 524.88Z" fill="#E3E8F4"/>
<path id="Vector_30" d="M389.47 416.34C390.589 417.468 391.563 418.731 392.37 420.1C393.5 422.18 393.95 424.61 395.37 426.54C392.869 423.03 390.014 419.786 386.85 416.86C384.93 415.21 382.85 413.79 380.92 412.14C379.45 410.88 373.01 405.42 374.29 403.56C379.93 406.43 385.18 411.71 389.47 416.34Z" fill="#E3E8F4"/>
<path id="Vector_31" d="M322.55 228.46C322.32 230.53 321.05 232.32 319.96 234.1C316.781 239.381 315.008 245.389 314.81 251.55C314.75 253.357 314.83 255.166 315.05 256.96C315.13 257.63 315.15 258.47 314.57 258.82C314.258 258.965 313.909 259.01 313.57 258.95C312.89 258.89 312.23 258.81 311.57 258.7C300.88 256.99 291.52 249.7 280.76 247.86C281.424 247.546 282.013 247.094 282.487 246.533C282.961 245.972 283.31 245.317 283.51 244.61C283.799 243.804 284.016 242.974 284.16 242.13C284.32 241.24 284.44 240.35 284.53 239.48C285.21 233.04 284.23 227.12 283.87 220.58C283.46 212.96 292.87 215.47 298.39 215.37C302.82 215.29 307.33 215.22 311.61 216.42C315.89 217.62 319.96 220.27 321.8 224.31C322.416 225.601 322.675 227.034 322.55 228.46Z" fill="#CB8C8E"/>
<path id="Vector_32" d="M314.57 258.82C314.258 258.965 313.909 259.01 313.57 258.95C312.89 258.89 312.23 258.81 311.57 258.7C310.65 257.84 309.76 256.94 308.91 256C306.91 253.78 305.11 251.34 302.79 249.45C299.206 246.666 294.826 245.103 290.29 244.99C288.023 245.05 285.755 244.923 283.51 244.61C283.799 243.804 284.016 242.974 284.16 242.13C284.32 241.24 284.44 240.35 284.53 239.48C285.784 239.319 287.046 239.229 288.31 239.21C289.794 238.995 291.298 238.965 292.79 239.12C295.26 239.49 297.44 240.87 299.66 242.02C302.73 243.61 306.02 244.81 308.87 246.78C309.75 247.4 310.59 248.08 311.43 248.78C312.57 249.71 313.7 250.65 314.84 251.57C314.78 253.377 314.86 255.186 315.08 256.98C315.13 257.62 315.15 258.47 314.57 258.82Z" fill="#E3E8F4"/>
<path id="Vector_33" opacity="0.1" d="M330.799 441.14C330.799 442.89 330.799 444.65 330.799 446.4C326.639 446.52 322.389 447.13 318.249 447.4C314.359 447.68 310.459 447.69 306.559 447.64C303.508 447.716 300.461 447.379 297.499 446.64C295.369 446.02 293.369 445 291.249 444.36C287.249 443.13 283.029 443.28 278.799 443.78C275.359 444.18 271.889 444.78 268.459 445.09C266.237 445.4 263.972 445.167 261.859 444.41C261.269 444.142 260.7 443.828 260.159 443.47C259.314 442.903 258.432 442.392 257.519 441.94C255.059 440.84 252.32 441.02 249.57 441.28C249.34 439.868 249.415 438.424 249.791 437.043C250.167 435.663 250.835 434.38 251.749 433.28C255.179 433.66 257.95 433.65 260.95 433.78C261.03 433.35 261.13 432.92 261.23 432.49C283.025 431.098 304.908 432.442 326.369 436.49C327.939 436.78 329.699 437.23 330.429 438.65C330.747 439.439 330.874 440.293 330.799 441.14Z" fill="black"/>
<path id="Vector_34" d="M285.421 243.04C283.251 243.3 280.931 243.85 279.531 245.52C279.124 245.969 278.862 246.53 278.781 247.13C278.864 248.066 279.045 248.991 279.321 249.89C279.343 251.1 279.024 252.292 278.401 253.33C276.951 256.33 275.401 259.39 272.961 261.64C271.961 262.57 270.821 263.34 269.811 264.25C268.662 265.339 267.608 266.523 266.661 267.79C264.551 270.43 262.381 273.2 261.611 276.49C260.261 282.2 257.451 287.59 255.611 293.17C253.771 298.75 252.611 304.69 253.611 310.47C254.081 313.21 255.031 315.84 255.691 318.54C256.751 322.87 257.051 327.35 258.171 331.66C258.881 334.35 259.901 336.95 260.671 339.66C262.35 345.467 262.803 351.559 262.001 357.55C261.251 363.02 262.511 368.84 260.301 373.89C259.393 375.753 258.391 377.568 257.301 379.33C255.89 381.921 254.631 384.592 253.531 387.33L247.361 401.89C246.136 404.631 245.057 407.435 244.131 410.29C241.561 418.65 241.551 427.56 241.911 436.29C241.954 436.562 241.893 436.841 241.741 437.07C241.551 437.27 241.121 437.21 241.111 436.94C241.031 437.44 240.711 438.31 240.641 438.81C245.891 441.09 252.351 437.64 257.581 439.97C259.101 440.65 260.391 441.78 261.921 442.44C264.031 443.205 266.297 443.442 268.521 443.13C276.151 442.5 283.981 440.13 291.301 442.39C293.431 443.04 295.421 444.06 297.551 444.68C300.515 445.419 303.566 445.755 306.621 445.68C310.521 445.74 314.421 445.73 318.311 445.44C326.681 444.83 335.471 443 343.181 446.32C345.671 444.49 345.861 441.65 345.961 438.57C346.147 432.77 346.334 426.973 346.521 421.18L348.591 357.23C348.883 352.825 348.719 348.401 348.101 344.03C346.691 336.11 342.361 329.03 338.101 322.24L318.211 290.24C316.891 288.12 318.211 285.75 319.121 283.42C320.391 280.077 321.251 276.591 321.681 273.04C322.001 270.43 321.981 267.49 320.211 265.55C319.211 264.46 317.801 263.85 316.661 262.91C315.001 261.55 314.001 259.62 313.001 257.8C310.226 252.795 306.197 248.598 301.311 245.62C296.401 242.77 291.061 242.37 285.421 243.04Z" fill="#3F3D56"/>
<path id="Vector_35" opacity="0.1" d="M305.939 272.06C298.869 274.01 294.489 281.19 292.549 288.26C289.829 298.15 290.489 308.72 292.889 318.68C295.289 328.64 299.389 338.11 303.539 347.48C304.511 349.771 305.606 352.007 306.819 354.18C310.183 360.062 315.322 364.728 321.499 367.51C327.716 370.254 334.735 370.564 341.169 368.38C342.353 368.001 343.467 367.434 344.469 366.7C348.009 363.98 348.559 358.94 348.819 354.48L349.709 338.85C349.8 338.025 349.759 337.192 349.589 336.38C349.188 335.271 348.573 334.252 347.779 333.38C344.851 329.589 342.678 325.271 341.379 320.66C340.469 317.43 339.989 314.06 338.589 311.01C337.749 309.17 336.589 307.49 335.679 305.68C333.679 301.78 332.969 297.41 332.029 293.15C331.209 289.43 330.229 285.747 329.089 282.1C328.563 280.08 327.701 278.164 326.539 276.43C323.789 272.71 318.909 271.37 314.389 270.43C312.253 269.801 309.997 269.692 307.809 270.11C305.349 270.78 303.439 272.68 301.659 274.5" fill="black"/>
<path id="Vector_36" d="M306.939 271.06C299.869 273.01 295.489 280.19 293.549 287.26C290.829 297.15 291.489 307.72 293.889 317.68C296.289 327.64 300.389 337.11 304.539 346.48C305.511 348.771 306.606 351.007 307.819 353.18C311.183 359.062 316.322 363.728 322.499 366.51C328.716 369.254 335.735 369.564 342.169 367.38C343.353 367.001 344.467 366.434 345.469 365.7C349.009 362.98 349.559 357.94 349.819 353.48L350.709 337.85C350.8 337.025 350.759 336.192 350.589 335.38C350.188 334.271 349.573 333.252 348.779 332.38C345.851 328.589 343.678 324.271 342.379 319.66C341.469 316.43 340.989 313.06 339.589 310.01C338.749 308.17 337.589 306.49 336.679 304.68C334.679 300.78 333.969 296.41 333.029 292.15C332.209 288.43 331.229 284.747 330.089 281.1C329.563 279.08 328.701 277.164 327.539 275.43C324.789 271.71 319.909 270.37 315.389 269.43C313.253 268.801 310.997 268.692 308.809 269.11C306.349 269.78 304.439 271.68 302.659 273.5" fill="#3F3D56"/>
<path id="Vector_37" d="M375.92 312.8C373.395 307.523 372.924 301.495 374.6 295.89C378.52 296.89 379.6 302.67 383.6 303.7C384.19 303.85 384.82 303.88 385.42 304.01C388.22 304.58 390.2 307.01 391.65 309.51C393.978 313.353 395.401 317.675 395.81 322.15C396.205 326.643 395.153 331.146 392.81 335C392.91 334.85 385.81 327.57 385.21 326.82C383.963 325.36 382.743 323.87 381.55 322.35C380.296 320.942 379.168 319.426 378.18 317.82C377.84 317.18 377.77 316.44 377.47 315.76C377 314.75 376.41 313.79 375.92 312.8Z" fill="#CB8C8E"/>
<path id="Vector_38" d="M357.691 371.62C356.472 381.22 352.1 390.143 345.261 396.99C343.731 398.5 341.821 399.99 339.681 399.78C337.371 399.54 335.781 397.44 334.131 395.78C331.131 392.78 327.131 390.99 323.801 388.37C322.079 386.951 320.449 385.425 318.921 383.8C314.021 378.8 309.091 373.8 305.181 367.97C302.971 364.69 301.081 361.17 298.461 358.21C296.391 355.86 293.901 353.92 291.721 351.68C289.541 349.44 287.621 346.76 287.101 343.68C286.551 340.42 283.101 338.3 280.931 335.8C278.256 332.633 276.324 328.907 275.277 324.896C274.23 320.885 274.095 316.69 274.881 312.62C275.231 310.88 275.961 308.93 277.641 308.33C278.308 308.126 279.014 308.082 279.701 308.2C283.921 308.79 287.051 312.29 289.781 315.57C291.653 317.715 293.373 319.987 294.931 322.37C298.261 327.78 299.791 334.08 301.271 340.26C302.141 343.87 305.741 346.54 308.331 349.2L314.831 355.87C316.381 357.46 317.931 359.06 319.631 360.49C324.281 364.43 329.861 367.07 335.431 369.49C335.922 367.689 336.663 365.966 337.631 364.37C338.127 363.585 338.782 362.912 339.553 362.396C340.325 361.879 341.196 361.529 342.111 361.37C344.691 361.04 347.051 362.75 349.111 364.37L356.761 370.37C357.191 370.72 357.751 371.1 357.691 371.62Z" fill="#FBBEBE"/>
<path id="Vector_39" opacity="0.1" d="M369.859 311.94C370.798 312.947 371.541 314.121 372.049 315.4C373.749 318.91 374.517 322.798 374.279 326.69C374.013 328.785 373.551 330.851 372.899 332.86L370.519 341.05C366.819 353.75 363.109 366.48 358.109 378.73C353.999 373.4 346.809 371.79 340.969 368.46C340.393 368.175 339.879 367.777 339.459 367.29C338.944 366.538 338.681 365.641 338.709 364.73C338.772 362.271 339.308 359.846 340.289 357.59C343.929 347.82 348.979 338.28 349.569 327.88C349.592 325.945 349.716 324.012 349.939 322.09C350.362 319.8 351.267 317.625 352.595 315.712C353.922 313.798 355.642 312.188 357.639 310.99C360.999 308.81 366.879 309.02 369.859 311.94Z" fill="black"/>
<path id="Vector_40" d="M368.861 309.62C369.797 310.629 370.54 311.802 371.051 313.08C372.75 316.59 373.518 320.478 373.281 324.37C373.021 326.493 372.559 328.585 371.901 330.62L369.521 338.81C365.821 351.51 362.111 364.24 357.111 376.49C353.001 371.17 345.811 369.55 339.971 366.22C339.395 365.938 338.881 365.544 338.461 365.06C337.949 364.306 337.686 363.411 337.711 362.5C337.772 360.037 338.309 357.609 339.291 355.35C342.931 345.58 347.981 336.05 348.571 325.64C348.593 323.708 348.717 321.779 348.941 319.86C349.361 317.568 350.266 315.391 351.593 313.475C352.921 311.56 354.642 309.949 356.641 308.75C360.001 306.52 365.881 306.73 368.861 309.62Z" fill="#F4F6FB"/>
<path id="Vector_41" d="M345.69 256.47C347.69 258.6 348.25 261.68 348.58 264.59C349.44 272.11 349.46 279.87 347.12 287.07C344.78 294.27 339.82 300.86 332.87 303.85C342.55 305.42 354.05 306.4 360.61 299.1C361.89 297.68 362.93 295.97 364.56 294.94C371.51 290.56 380.33 302.11 387.87 298.83C392.87 296.67 393.23 289.91 392.87 284.51L391.5 264.51C390.8 254.3 389.91 243.51 384.06 235.15C378.78 227.58 370.13 223.03 361.34 220.15C355.02 218.15 347.98 216.84 341.83 219.37C333.98 222.59 318.83 235.45 318.92 244.96C319.09 259.09 339.09 249.49 345.69 256.47Z" fill="#3F3D56"/>
<path id="Vector_42" d="M351.649 334.54C352.772 334.584 353.895 334.439 354.969 334.11C356.669 333.48 357.969 331.9 359.799 331.64C360.719 331.51 361.899 331.64 362.299 330.77C362.419 330.365 362.463 329.941 362.429 329.52C362.569 327.09 365.619 326.25 367.679 324.95C368.979 324.039 370.129 322.933 371.089 321.67L378.189 313.28C378.842 312.321 379.79 311.601 380.89 311.23C382.145 311.09 383.406 311.449 384.399 312.23C388.532 314.977 391.842 318.795 393.976 323.275C396.11 327.755 396.989 332.73 396.519 337.67C396.503 338.352 396.325 339.02 395.999 339.62C394.889 341.36 392.279 340.94 390.309 341.56C386.539 342.74 385.39 347.63 382.16 349.9C380.71 350.9 378.92 351.33 377.51 352.37C376.1 353.41 375.019 355.23 373.739 356.64C371.739 358.9 368.889 360.29 366.149 361.64L357.779 365.72C356.133 366.577 354.417 367.293 352.649 367.86C349.598 368.574 346.458 368.84 343.329 368.65L337.2 368.57C336.508 368.632 335.814 368.493 335.2 368.17C334.839 367.9 334.536 367.56 334.309 367.17C331.159 362.44 330.52 356.33 331.64 350.76C332.57 346.14 334.759 339.76 338.049 336.25C340.909 333.23 347.689 334.62 351.649 334.54Z" fill="#3F3D56"/>
<path id="Vector_43" d="M327.171 204.97C326.989 204.019 327.115 203.036 327.53 202.162C327.946 201.288 328.629 200.569 329.481 200.11L337.081 194.4L335.521 192.13L338.451 189.62C338.21 189.286 337.878 189.029 337.495 188.88C337.112 188.731 336.693 188.696 336.291 188.78C336.751 185.69 334.111 183.08 331.601 181.24C326.491 177.5 320.601 174.39 314.341 173.97C311.271 173.77 308.191 174.21 305.121 173.97C300.981 173.71 296.961 172.31 292.811 172.15C288.661 171.99 284.001 173.62 282.261 177.35C281.521 178.97 281.421 180.8 280.861 182.49C279.611 186.23 276.311 188.82 273.501 191.59C270.691 194.36 268.081 198.07 268.861 201.93C269.168 203.175 269.649 204.37 270.291 205.48L285.791 235.41C286.309 234.439 287.053 233.606 287.959 232.981C288.866 232.357 289.909 231.959 291.001 231.82C293.551 231.52 296.001 232.66 298.581 232.98C300.494 233.189 302.429 232.934 304.224 232.238C306.018 231.542 307.619 230.425 308.891 228.98C312.311 225.04 313.141 214.98 319.081 213.98C321.181 213.62 324.541 216.27 326.371 215.22C328.521 214.04 327.211 207.19 327.171 204.97Z" fill="#3F3D56"/>
<g id="Group" opacity="0.1">
<path id="Vector_44" d="M338.87 300.79C345.82 297.79 350.77 291.19 353.12 284C355.47 276.81 355.44 269 354.58 261.52C354.25 258.62 353.7 255.52 351.69 253.4C345.09 246.4 325.09 256.02 324.91 241.96C324.8 233.85 335.83 223.31 343.91 218.38C343.186 218.573 342.474 218.81 341.78 219.09C333.93 222.31 318.78 235.18 318.87 244.68C319.05 258.74 339.05 249.15 345.65 256.13C347.65 258.25 348.21 261.34 348.54 264.25C349.4 271.76 349.42 279.53 347.08 286.72C344.74 293.91 339.78 300.52 332.83 303.51C341.37 304.89 351.32 305.81 358.05 301C352.14 302.55 345.13 301.8 338.87 300.79Z" fill="black"/>
<path id="Vector_45" d="M370.559 291.87C369.834 292.352 369.183 292.938 368.629 293.61C374.759 294.01 381.729 301.15 387.869 298.48C388.943 298.009 389.879 297.273 390.589 296.34C383.869 296.08 376.529 288.11 370.559 291.87Z" fill="black"/>
</g>
<g id="Group_2" opacity="0.1">
<path id="Vector_46" d="M335.571 184.91C335.421 184.69 335.261 184.47 335.101 184.26C335.098 184.491 335.082 184.721 335.051 184.95C335.222 184.916 335.397 184.903 335.571 184.91Z" fill="black"/>
<path id="Vector_47" d="M338.71 189.62C338.47 189.286 338.138 189.03 337.754 188.881C337.371 188.731 336.953 188.697 336.55 188.78C336.661 188.025 336.593 187.254 336.35 186.53L334.28 188.3L335.84 190.56L328.24 196.28C327.388 196.739 326.705 197.458 326.29 198.332C325.874 199.206 325.748 200.19 325.93 201.14C325.93 203.36 327.28 210.21 325.12 211.44C323.3 212.49 319.93 209.84 317.84 210.2C311.9 211.2 311.07 221.2 307.65 225.2C306.378 226.645 304.778 227.762 302.983 228.458C301.189 229.155 299.253 229.409 297.34 229.2C294.79 228.89 292.34 227.75 289.76 228.05C288.667 228.19 287.624 228.589 286.716 229.214C285.808 229.838 285.062 230.67 284.54 231.64C279.387 221.68 274.233 211.723 269.08 201.77V201.99C269.395 203.234 269.88 204.428 270.52 205.54L286 235.41C286.522 234.44 287.268 233.608 288.176 232.984C289.084 232.359 290.127 231.96 291.22 231.82C293.77 231.52 296.22 232.66 298.8 232.98C300.713 233.189 302.649 232.935 304.443 232.238C306.238 231.542 307.838 230.425 309.11 228.98C312.53 225.04 313.36 214.98 319.3 213.98C321.39 213.62 324.76 216.27 326.58 215.22C328.74 213.99 327.43 207.14 327.39 204.92C327.282 203.899 327.433 202.867 327.83 201.92C328.304 201.158 328.943 200.512 329.7 200.03L337.3 194.32L335.74 192.05L338.71 189.62Z" fill="black"/>
</g>
<path id="Vector_48" opacity="0.1" d="M251.06 406.73C250.06 411 249.43 415.36 248.06 419.53C247.46 421.41 246.72 423.24 246.13 425.12C245.6 426.83 245.2 428.56 244.79 430.3L243.16 437.3C243.654 437.275 244.135 437.135 244.565 436.892C244.995 436.649 245.363 436.31 245.64 435.9C246.188 435.076 246.603 434.172 246.87 433.22L249.6 425.1L251.6 419.1C254.44 410.65 257.29 402.18 259.45 393.52C259.99 391.38 260.45 389.24 260.92 387.08C261.1 386.25 262.41 381.62 261.07 382.01C260.12 382.28 258.51 386.5 258.07 387.42C257.07 389.26 256.25 391.14 255.44 393.05C253.589 397.475 252.123 402.052 251.06 406.73Z" fill="black"/>
<path id="Vector_49" d="M303.22 294.75C303.22 294.75 298.7 293.12 297.59 295.06C297.59 295.06 305.81 298.06 307.47 302.38C307.47 302.38 309.59 300.2 306.69 297.43L306.15 293.37L303.22 294.75Z" fill="#00A66C"/>
<path id="Vector_50" d="M310.72 288.62C310.72 288.62 310.97 286.56 309.93 286.34C308.89 286.12 301.85 286.53 302.98 294.34C304.11 302.15 312.25 299.22 312.25 299.22L315.82 295.06C315.82 295.06 316.58 289.55 311.58 288.22L310.72 288.62Z" fill="#6C63FF"/>
<path id="Vector_51" opacity="0.1" d="M305.05 284.38C305.05 284.38 298.91 287.48 301.89 295.27L304.2 293.93C304.2 293.93 307.09 287.17 305.05 284.38Z" fill="black"/>
<path id="Vector_52" d="M304.83 284.22C304.83 284.22 298.7 287.32 301.68 295.11L303.47 296.16C303.47 296.16 306.88 287.01 304.83 284.22Z" fill="#6C63FF"/>
<path id="Vector_53" opacity="0.1" d="M314.849 292.22C315.171 293.303 315.83 294.256 316.729 294.94C318.169 295.94 315.299 298.25 315.299 298.25C315.299 298.25 311.419 302.66 307.749 300.51C305.559 296.82 307.209 296.31 307.209 296.31C307.209 296.31 311.789 291.28 314.849 292.22Z" fill="black"/>
<path id="Vector_54" d="M315 292.43C315.322 293.513 315.98 294.466 316.88 295.15C318.31 296.15 315.44 298.46 315.44 298.46C315.44 298.46 311.57 302.87 307.89 300.72C304.21 298.57 307.35 296.53 307.35 296.53C307.35 296.53 311.89 291.49 315 292.43Z" fill="#6C63FF"/>
<path id="Vector_55" d="M301.079 284.32C301.079 284.32 296.539 285.9 296.899 288.11C296.899 288.11 305.179 285.27 309.189 287.58C309.189 287.58 309.459 284.58 305.469 284.22L302.469 281.4L301.079 284.32Z" fill="#5F3839"/>
<path id="Vector_56" d="M302.999 274.81C302.999 274.81 301.899 273.05 300.999 273.53C300.099 274.01 294.849 278.76 300.619 284.1C306.389 289.44 310.899 282.1 310.899 282.1L310.999 276.62C310.999 276.62 308.119 271.86 303.399 273.98L302.999 274.81Z" fill="#6C63FF"/>
<path id="Vector_57" opacity="0.1" d="M296.001 275.11C296.001 275.11 293.181 281.38 300.411 285.56L301.361 283.07C301.361 283.07 299.321 276 296.001 275.11Z" fill="black"/>
<path id="Vector_58" d="M295.7 275.12C295.7 275.12 292.89 281.39 300.11 285.57L302.16 285.26C302.16 285.26 299.05 276 295.7 275.12Z" fill="#6C63FF"/>
<path id="Vector_59" opacity="0.1" d="M308.52 275.03C309.454 275.672 310.567 276.001 311.7 275.97C313.46 275.86 312.7 279.44 312.7 279.44C312.7 279.44 312.46 285.31 308.25 285.95C304.25 284.46 305.19 283.03 305.19 283.03C305.19 283.03 305.55 276.23 308.52 275.03Z" fill="black"/>
<path id="Vector_60" d="M308.741 275.13C309.674 275.773 310.788 276.103 311.921 276.07C313.681 275.96 312.921 279.54 312.921 279.54C312.921 279.54 312.691 285.41 308.481 286.05C304.271 286.69 305.421 283.13 305.421 283.13C305.421 283.13 305.771 276.33 308.741 275.13Z" fill="#6C63FF"/>
<path id="Vector_61" d="M285.649 286.19C285.649 286.19 287.089 284.93 287.879 286.59L287.209 290.31L283.079 327.15L280.439 331.98L285.649 286.19Z" fill="#00A66C"/>
<path id="Vector_62" d="M297.89 277.62L280.59 333.82L282.16 334.69L299.32 277.99L297.89 277.62Z" fill="#00A66C"/>
<path id="Vector_63" d="M293.16 303.1C293.16 303.1 289.28 317.77 285 323.62C280.72 329.47 281.53 334.32 281.53 334.32L282.93 334.75L294.43 304.12L293.16 303.1Z" fill="#00A66C"/>
<path id="Vector_64" d="M307.299 290.19L282.619 333.17L283.799 333.81L309.249 290.5L307.299 290.19Z" fill="#00A66C"/>
<path id="Vector_65" d="M312.75 301.54L282.01 333.58L282.93 334.77L314.06 302.26L312.75 301.54Z" fill="#00A66C"/>
<path id="Vector_66" d="M314.721 303.92C314.721 303.92 314.311 302.12 312.931 302.46C311.551 302.8 284.381 332.97 284.381 332.97L285.531 333.87L314.721 303.92Z" fill="#00A66C"/>
<path id="Vector_67" d="M284.32 284.25C284.32 284.25 279.68 285.51 279.9 287.74C279.9 287.74 288.35 285.48 292.19 288.06C292.19 288.06 292.67 285.06 288.71 284.45L285.93 281.45L284.32 284.25Z" fill="#00A66C"/>
<path id="Vector_68" d="M286.919 274.89C286.919 274.89 285.919 273.06 284.969 273.48C284.019 273.9 278.469 278.27 283.849 283.99C289.229 289.71 294.249 282.67 294.249 282.67L294.779 277.21C294.779 277.21 292.239 272.27 287.379 274.05L286.919 274.89Z" fill="#6C63FF"/>
<path id="Vector_69" opacity="0.1" d="M279.87 274.71C279.87 274.71 276.62 280.77 283.54 285.44L284.66 283.02C284.66 283.02 283.14 275.82 279.87 274.71Z" fill="black"/>
<path id="Vector_70" d="M279.6 274.7C279.6 274.7 276.35 280.76 283.27 285.43L285.34 285.27C285.34 285.27 282.88 275.81 279.6 274.7Z" fill="#6C63FF"/>
<path id="Vector_71" opacity="0.1" d="M292.39 275.5C293.283 276.192 294.372 276.584 295.5 276.62C297.26 276.62 296.22 280.15 296.22 280.15C296.22 280.15 295.58 285.99 291.34 286.34C287.43 284.58 288.49 283.21 288.49 283.21C288.49 283.21 289.35 276.49 292.39 275.5Z" fill="black"/>
<path id="Vector_72" d="M292.6 275.62C293.49 276.324 294.578 276.73 295.71 276.78C297.47 276.78 296.43 280.31 296.43 280.31C296.43 280.31 295.79 286.14 291.55 286.49C287.31 286.84 288.7 283.37 288.7 283.37C288.7 283.37 289.56 276.62 292.6 275.62Z" fill="#6C63FF"/>
<path id="Vector_73" d="M296.15 275.62C296.15 275.62 291.51 276.88 291.72 279.11C291.72 279.11 300.17 276.85 304.01 279.42C304.01 279.42 304.5 276.42 300.53 275.82L297.75 272.82L296.15 275.62Z" fill="#00A66C"/>
<path id="Vector_74" d="M298.74 266.28C298.74 266.28 297.74 264.45 296.79 264.87C295.84 265.29 290.29 269.66 295.67 275.38C301.05 281.1 306.07 274.06 306.07 274.06L306.6 268.6C306.6 268.6 304.06 263.66 299.2 265.44L298.74 266.28Z" fill="#6C63FF"/>
<path id="Vector_75" opacity="0.1" d="M291.69 266.1C291.69 266.1 288.44 272.16 295.36 276.83L296.48 274.41C296.48 274.41 295 267.21 291.69 266.1Z" fill="black"/>
<path id="Vector_76" d="M291.421 266.09C291.421 266.09 288.181 272.15 295.091 276.82L297.161 276.65C297.161 276.65 294.701 267.2 291.421 266.09Z" fill="#6C63FF"/>
<path id="Vector_77" opacity="0.1" d="M304.22 266.89C305.105 267.593 306.191 267.996 307.32 268.04C309.08 268.04 308.04 271.57 308.04 271.57C308.04 271.57 307.4 277.41 303.16 277.76C299.26 275.99 300.31 274.63 300.31 274.63C300.31 274.63 301.17 267.88 304.22 266.89Z" fill="black"/>
<path id="Vector_78" d="M304.431 267C305.315 267.703 306.401 268.106 307.531 268.15C309.291 268.15 308.251 271.68 308.251 271.68C308.251 271.68 307.611 277.52 303.371 277.87C299.131 278.22 300.521 274.74 300.521 274.74C300.521 274.74 301.381 267.99 304.431 267Z" fill="#6C63FF"/>
<path id="Vector_79" d="M306.14 287.62C306.14 287.62 301.62 285.99 300.51 287.93C300.51 287.93 308.73 290.93 310.4 295.25C310.4 295.25 312.52 293.07 309.62 290.3L309.08 286.24L306.14 287.62Z" fill="#00A66C"/>
<path id="Vector_80" d="M313.641 281.46C313.641 281.46 313.891 279.4 312.851 279.18C311.811 278.96 304.781 279.37 305.851 287.18C306.921 294.99 315.131 292.06 315.131 292.06L318.701 287.9C318.701 287.9 319.451 282.39 314.451 281.06L313.641 281.46Z" fill="#6C63FF"/>
<path id="Vector_81" opacity="0.1" d="M308 277.26C308 277.26 301.86 280.36 304.85 288.15L307.15 286.81C307.15 286.81 310 280.05 308 277.26Z" fill="black"/>
<path id="Vector_82" d="M307.759 277.1C307.759 277.1 301.619 280.2 304.599 287.99L306.389 289.04C306.389 289.04 309.799 279.89 307.759 277.1Z" fill="#6C63FF"/>
<path id="Vector_83" opacity="0.1" d="M317.771 285.1C318.098 286.181 318.755 287.132 319.651 287.82C321.091 288.82 318.221 291.13 318.221 291.13C318.221 291.13 314.341 295.54 310.671 293.39C308.491 289.71 310.131 289.19 310.131 289.19C310.131 289.19 314.711 284.16 317.771 285.1Z" fill="black"/>
<path id="Vector_84" d="M317.88 285.31C318.203 286.395 318.861 287.351 319.76 288.04C321.2 289.04 318.33 291.34 318.33 291.34C318.33 291.34 314.45 295.75 310.78 293.61C307.11 291.47 310.24 289.41 310.24 289.41C310.24 289.41 314.82 284.37 317.88 285.31Z" fill="#6C63FF"/>
<path id="Vector_85" d="M313.39 299.87C313.39 299.87 308.87 298.24 307.77 300.19C307.77 300.19 315.98 303.19 317.65 307.51C317.65 307.51 319.77 305.32 316.87 302.56L316.33 298.49L313.39 299.87Z" fill="#00A66C"/>
<path id="Vector_86" d="M320.89 293.7C320.89 293.7 321.14 291.64 320.1 291.43C319.06 291.22 312.03 291.61 313.16 299.43C314.29 307.25 322.43 304.32 322.43 304.32L326 300.15C326 300.15 326.75 294.65 321.75 293.32L320.89 293.7Z" fill="#6C63FF"/>
<path id="Vector_87" opacity="0.1" d="M315.221 289.5C315.221 289.5 309.081 292.6 312.071 300.4L314.371 299.06C314.371 299.06 317.271 292.29 315.221 289.5Z" fill="black"/>
<path id="Vector_88" d="M315 289.34C315 289.34 308.86 292.44 311.84 300.23L313.63 301.28C313.63 301.28 317.05 292.13 315 289.34Z" fill="#6C63FF"/>
<path id="Vector_89" opacity="0.1" d="M325 297.34C325.321 298.424 325.975 299.379 326.87 300.07C328.31 301.07 325.44 303.37 325.44 303.37C325.44 303.37 321.56 307.78 317.89 305.64C315.71 301.95 317.35 301.44 317.35 301.44C317.35 301.44 322 296.4 325 297.34Z" fill="black"/>
<path id="Vector_90" d="M325.13 297.56C325.452 298.643 326.11 299.596 327.01 300.28C328.45 301.28 325.58 303.59 325.58 303.59C325.58 303.59 321.7 308 318.03 305.85C314.36 303.7 317.49 301.65 317.49 301.65C317.49 301.65 322.07 296.62 325.13 297.56Z" fill="#6C63FF"/>
<path id="Vector_91" d="M314.31 303.98C314.31 303.98 309.79 302.35 308.68 304.3C308.68 304.3 316.9 307.3 318.56 311.62C318.56 311.62 320.69 309.43 317.79 306.67L317.24 302.6L314.31 303.98Z" fill="#00A66C"/>
<path id="Vector_92" d="M321.81 297.81C321.81 297.81 322.06 295.76 321.02 295.54C319.98 295.32 312.95 295.72 314.07 303.54C315.19 311.36 323.34 308.43 323.34 308.43L326.91 304.27C326.91 304.27 327.67 298.76 322.67 297.43L321.81 297.81Z" fill="#6C63FF"/>
<path id="Vector_93" opacity="0.1" d="M316.14 293.62C316.14 293.62 310 296.71 313 304.51L315.31 303.17C315.31 303.17 318.18 296.4 316.14 293.62Z" fill="black"/>
<path id="Vector_94" d="M315.92 293.45C315.92 293.45 309.79 296.55 312.77 304.34L314.56 305.4C314.56 305.4 318 296.24 315.92 293.45Z" fill="#6C63FF"/>
<path id="Vector_95" opacity="0.1" d="M325.939 301.45C326.262 302.535 326.92 303.491 327.819 304.18C329.259 305.18 326.389 307.48 326.389 307.48C326.389 307.48 322.509 311.9 318.839 309.75C316.649 306.06 318.299 305.55 318.299 305.55C318.299 305.55 322.879 300.51 325.939 301.45Z" fill="black"/>
<path id="Vector_96" d="M326.049 301.67C326.371 302.753 327.029 303.706 327.929 304.39C329.369 305.39 326.489 307.7 326.489 307.7C326.489 307.7 322.619 312.11 318.949 309.96C315.279 307.81 318.399 305.76 318.399 305.76C318.399 305.76 322.999 300.73 326.049 301.67Z" fill="#6C63FF"/>
<path id="Vector_97" d="M292.29 301.3C292.29 301.3 287.77 299.66 286.66 301.61C286.66 301.61 294.88 304.61 296.54 308.93C296.54 308.93 298.66 306.75 295.76 303.98L295.22 299.91L292.29 301.3Z" fill="#00A66C"/>
<path id="Vector_98" d="M299.79 295.12C299.79 295.12 300.04 293.07 299 292.85C297.96 292.63 290.92 293.04 292.05 300.85C293.18 308.66 301.32 305.74 301.32 305.74L304.89 301.58C304.89 301.58 305.65 296.07 300.65 294.74L299.79 295.12Z" fill="#6C63FF"/>
<path id="Vector_99" opacity="0.1" d="M294.12 290.93C294.12 290.93 288 294.03 291 301.82L293.31 300.48C293.31 300.48 296.16 293.72 294.12 290.93Z" fill="black"/>
<path id="Vector_100" d="M293.901 290.77C293.901 290.77 287.771 293.86 290.751 301.66L292.541 302.66C292.541 302.66 296.001 293.56 293.901 290.77Z" fill="#6C63FF"/>
<path id="Vector_101" opacity="0.1" d="M303.92 298.76C304.24 299.847 304.899 300.803 305.8 301.49C307.24 302.49 304.37 304.8 304.37 304.8C304.37 304.8 300.49 309.21 296.82 307.06C294.63 303.37 296.28 302.86 296.28 302.86C296.28 302.86 300.86 297.82 303.92 298.76Z" fill="black"/>
<path id="Vector_102" d="M304 298.98C304.322 300.063 304.98 301.016 305.88 301.7C307.31 302.7 304.44 305.01 304.44 305.01C304.44 305.01 300.57 309.42 296.89 307.27C293.21 305.12 296.35 303.07 296.35 303.07C296.35 303.07 301 298.04 304 298.98Z" fill="#6C63FF"/>
<path id="Vector_103" d="M294.761 287.83C294.761 287.83 290.231 286.19 289.131 288.14C289.131 288.14 297.351 291.14 299.011 295.46C299.011 295.46 301.131 293.28 298.231 290.51L297.691 286.44L294.761 287.83Z" fill="#00A66C"/>
<path id="Vector_104" d="M302.26 281.62C302.26 281.62 302.51 279.62 301.47 279.35C300.43 279.08 293.39 279.54 294.47 287.35C295.55 295.16 303.74 292.24 303.74 292.24L307.31 288.08C307.31 288.08 308.06 282.57 303.06 281.24L302.26 281.62Z" fill="#6C63FF"/>
<path id="Vector_105" opacity="0.1" d="M296.58 277.46C296.58 277.46 290.45 280.55 293.43 288.35L295.74 287.01C295.74 287.01 298.63 280.25 296.58 277.46Z" fill="black"/>
<path id="Vector_106" d="M296.369 277.3C296.369 277.3 290.229 280.39 293.219 288.19L294.999 289.24C294.999 289.24 298.419 280.09 296.369 277.3Z" fill="#6C63FF"/>
<path id="Vector_107" opacity="0.1" d="M306.39 285.29C306.714 286.375 307.372 287.331 308.27 288.02C309.71 289.02 306.84 291.33 306.84 291.33C306.84 291.33 302.96 295.74 299.29 293.59C297.1 289.9 298.75 289.39 298.75 289.39C298.75 289.39 303.32 284.35 306.39 285.29Z" fill="black"/>
<path id="Vector_108" d="M306.489 285.51C306.811 286.593 307.47 287.546 308.369 288.23C309.809 289.23 306.939 291.54 306.939 291.54C306.939 291.54 303.059 295.95 299.389 293.8C295.719 291.65 298.849 289.6 298.849 289.6C298.849 289.6 303.429 284.62 306.489 285.51Z" fill="#6C63FF"/>
<path id="Vector_109" d="M279.7 308.2C279.7 308.2 292.09 309.57 298.82 331.12C305.55 352.67 284.38 336.55 284.38 336.55C284.38 336.55 278.8 337.67 277.93 326.42C277.06 315.17 279.7 308.2 279.7 308.2Z" fill="#FBBEBE"/>
<path id="Vector_110" d="M281.075 324.018L278.113 325.332C277.765 325.486 277.607 325.892 277.76 326.238C277.914 326.584 278.32 326.739 278.669 326.584L281.63 325.27C281.979 325.116 282.137 324.71 281.983 324.364C281.83 324.019 281.423 323.864 281.075 324.018Z" fill="#E3E8F4"/>
<g id="coeurs">
<path id="Vector_111" d="M228.691 244.14L226.691 242.32C219.511 235.72 214.761 231.44 214.761 226.1C214.743 225.085 214.93 224.076 215.309 223.134C215.688 222.192 216.253 221.336 216.969 220.616C217.685 219.897 218.538 219.328 219.478 218.944C220.418 218.559 221.426 218.368 222.441 218.38C223.639 218.386 224.822 218.653 225.906 219.163C226.991 219.672 227.951 220.412 228.721 221.33C229.489 220.41 230.45 219.669 231.534 219.16C232.619 218.65 233.802 218.384 235.001 218.38C236.015 218.369 237.022 218.562 237.96 218.947C238.899 219.331 239.751 219.9 240.466 220.62C241.181 221.34 241.745 222.195 242.124 223.137C242.502 224.078 242.688 225.086 242.671 226.1C242.671 231.44 237.931 235.72 230.741 242.32L228.691 244.14Z" fill="#FF0000"/>
<path id="Vector_112" d="M200.781 130.68L198.781 128.85C191.591 122.26 186.841 117.97 186.841 112.64C186.824 111.625 187.01 110.616 187.389 109.674C187.768 108.733 188.333 107.876 189.049 107.156C189.765 106.437 190.618 105.868 191.558 105.484C192.498 105.099 193.506 104.908 194.521 104.92C195.719 104.926 196.902 105.193 197.986 105.703C199.071 106.212 200.031 106.952 200.801 107.87C201.57 106.951 202.531 106.211 203.615 105.702C204.7 105.192 205.883 104.925 207.081 104.92C208.095 104.909 209.102 105.102 210.041 105.487C210.979 105.871 211.831 106.44 212.546 107.16C213.261 107.88 213.825 108.736 214.204 109.677C214.582 110.618 214.768 111.626 214.751 112.64C214.751 117.97 210.011 122.26 202.821 128.85L200.781 130.68Z" fill="#FF0000"/>
<path id="Vector_113" d="M410.22 185.07L408.22 183.24C401.03 176.65 396.29 172.36 396.29 167.03C396.273 166.016 396.459 165.008 396.837 164.067C397.216 163.126 397.78 162.27 398.495 161.55C399.21 160.83 400.062 160.261 401.001 159.877C401.939 159.492 402.946 159.299 403.96 159.31C405.158 159.316 406.341 159.582 407.426 160.092C408.51 160.601 409.471 161.341 410.24 162.26C411.01 161.342 411.97 160.602 413.055 160.093C414.14 159.583 415.322 159.316 416.52 159.31C417.535 159.298 418.543 159.49 419.483 159.874C420.423 160.258 421.276 160.827 421.992 161.547C422.708 162.266 423.273 163.123 423.652 164.065C424.031 165.006 424.218 166.015 424.2 167.03C424.2 172.36 419.45 176.65 412.27 183.24L410.22 185.07Z" fill="#FF0000"/>
</g>
<g id="artifice">
<path id="Vector_114" opacity="0.5" d="M823.931 171.45C819.931 166.01 811.661 171.91 815.401 177.54C816.401 179.01 817.451 180.44 818.461 181.8C830.781 198.43 837.161 218.62 842.661 238.57C844.001 243.47 845.311 248.7 843.771 253.57C845.971 240.57 844.541 227.22 841.221 214.49C837.901 201.76 832.731 189.6 827.391 177.59C826.459 175.426 825.299 173.368 823.931 171.45Z" fill="#6C63FF"/>
<path id="Vector_115" d="M743.999 206.42C735.689 206.17 734.639 218.77 742.909 219.42C745.079 219.59 747.269 219.64 749.349 219.7C774.789 220.39 798.849 229.62 821.959 239.54C827.639 241.97 833.589 244.7 836.959 249.91C826.539 237.83 812.819 228.98 798.219 222.47C783.619 215.96 768.079 211.7 752.539 207.71C749.748 206.97 746.884 206.537 743.999 206.42Z" fill="#6C63FF"/>
<path id="Vector_116" opacity="0.2" d="M746.32 237.39C741.08 237.59 742.259 245.04 747.539 245.09C748.919 245.09 750.3 245.04 751.62 244.98C767.62 244.33 784.099 248.76 800.039 253.63C803.949 254.82 808.089 256.18 810.929 259.11C802.629 252.44 792.73 247.8 782.63 244.58C772.53 241.36 762.16 239.5 751.83 237.81C750.011 237.49 748.165 237.35 746.32 237.39Z" fill="#6C63FF"/>
<path id="Vector_117" opacity="0.5" d="M853.69 376C855.18 381 862.1 378 860.84 372.91C860.51 371.57 860.1 370.25 859.72 368.99C855.11 353.6 855.33 336.59 856.09 319.94C856.27 315.85 856.56 311.51 858.69 308.03C854.29 317.73 852.25 328.46 851.64 339.03C851.03 349.6 851.8 360.12 852.72 370.54C852.862 372.388 853.187 374.217 853.69 376Z" fill="#6C63FF"/>
<path id="Vector_118" opacity="0.2" d="M755.88 164.46C752.72 163.91 752.48 168.51 755.63 169.21C756.46 169.39 757.29 169.53 758.08 169.67C767.75 171.32 777 176.05 785.9 180.98C788.09 182.19 790.38 183.53 791.71 185.64C787.486 180.66 782.381 176.5 776.65 173.37C771.011 170.276 765.152 167.602 759.12 165.37C758.073 164.957 756.988 164.652 755.88 164.46Z" fill="#6C63FF"/>
<path id="Vector_119" d="M707.12 286.38C699.12 290.51 705.88 301.83 714.12 298.07C716.27 297.07 718.38 295.99 720.38 294.94C744.87 282.24 773.32 277.57 801.29 273.94C808.16 273.06 815.481 272.29 821.831 275.01C804.521 270.12 786.091 269.72 768.271 271.79C750.451 273.86 733.121 278.33 715.961 283.04C712.909 283.853 709.947 284.972 707.12 286.38Z" fill="#6C63FF"/>
<path id="Vector_120" opacity="0.5" d="M730 330.45C724.24 335.82 733.23 342.17 739.27 337.01C740.85 335.66 742.36 334.23 743.8 332.88C761.35 316.41 784.54 304.68 807.63 293.88C813.3 291.23 836.63 288.52 842.85 288.67C826.59 290.12 793.36 295.2 778.59 301.92C763.82 308.64 750.14 316.97 736.67 325.44C734.296 326.899 732.063 328.577 730 330.45Z" fill="#6C63FF"/>
<path id="Vector_121" d="M771.09 400.8C769.41 408.48 780.41 408.59 782.45 400.91C782.98 398.91 783.45 396.91 783.82 394.91C788.9 371.42 801.31 348.62 814.17 326.62C817.32 321.22 834.98 305.73 840.17 302.31C827.61 312.76 803.17 335.83 794.83 349.75C786.49 363.67 780 378.25 773.73 392.87C772.61 395.427 771.726 398.082 771.09 400.8Z" fill="#6C63FF"/>
<path id="Vector_122" d="M853.78 130.74C849.86 122.74 838.65 129.32 842.21 137.52C843.14 139.67 844.21 141.77 845.21 143.77C857.29 168.2 861.44 196.46 864.54 224.23C865.31 231.05 865.95 238.31 863.19 244.58C868.25 227.48 868.92 209.21 867.19 191.58C865.46 173.95 861.31 156.65 856.95 139.58C856.193 136.534 855.131 133.573 853.78 130.74Z" fill="#6C63FF"/>
<path id="Vector_123" d="M791.299 144.35C791.506 144.47 791.74 144.539 791.979 144.55C792.409 144.55 792.719 144.11 792.899 143.71C793.899 141.59 793.319 138.83 794.819 137.03C796.352 138.873 797.586 140.945 798.479 143.17L804.239 141.39C804.51 142.505 804.552 143.664 804.365 144.796C804.178 145.928 803.764 147.011 803.149 147.98C804.158 148.42 805.077 149.044 805.859 149.82C806.247 150.214 806.518 150.707 806.644 151.245C806.769 151.783 806.743 152.346 806.569 152.87C805.238 153.193 803.868 153.328 802.499 153.27C802.717 155.798 802.572 158.343 802.069 160.83C802.06 161.021 802.011 161.209 801.927 161.38C801.843 161.552 801.724 161.705 801.579 161.83C801.345 161.923 801.089 161.949 800.841 161.907C800.592 161.865 800.36 161.755 800.169 161.59C798.182 160.366 796.551 158.642 795.439 156.59L793.299 161.62C793.14 162.158 792.783 162.616 792.299 162.9C791.976 163.015 791.623 163.018 791.298 162.907C790.973 162.797 790.695 162.579 790.509 162.29C790.156 161.698 789.937 161.036 789.869 160.35L789.069 155.48C789.058 155.228 788.967 154.987 788.809 154.79C788.566 154.643 788.281 154.583 787.999 154.62C785.999 154.56 783.969 154.54 781.909 154.56C781.559 153.48 782.639 152.47 783.669 152.02C784.699 151.57 785.949 151.22 786.469 150.21C787.529 148.16 784.779 145.3 785.949 143.52C787.309 141.42 789.529 143.47 791.299 144.35Z" fill="#6C63FF"/>
<path id="Vector_124" opacity="0.5" d="M902.381 171.45C906.381 166.01 914.661 171.91 910.921 177.54C909.921 179.01 908.921 180.44 907.861 181.8C895.541 198.43 889.161 218.62 883.661 238.57C882.321 243.47 881.011 248.7 882.551 253.57C880.351 240.57 881.781 227.22 885.101 214.49C888.421 201.76 893.591 189.6 898.931 177.59C899.863 175.428 901.019 173.37 902.381 171.45Z" fill="#6C63FF"/>
<path id="Vector_125" d="M982.29 206.42C990.6 206.17 991.65 218.77 983.38 219.42C981.21 219.59 979.02 219.64 976.94 219.7C951.5 220.39 927.44 229.62 904.33 239.54C898.65 241.97 892.7 244.7 889.33 249.91C899.75 237.83 913.47 228.98 928.07 222.47C942.67 215.96 958.2 211.7 973.75 207.71C976.541 206.97 979.405 206.537 982.29 206.42Z" fill="#6C63FF"/>
<path id="Vector_126" opacity="0.5" d="M980.001 237.39C985.241 237.59 984.061 245.04 978.781 245.09C977.401 245.09 976.021 245.04 974.701 244.98C958.651 244.33 942.221 248.76 926.281 253.63C922.371 254.82 918.281 256.18 915.391 259.11C923.691 252.44 933.581 247.8 943.691 244.58C953.801 241.36 964.161 239.5 974.491 237.81C976.309 237.49 978.155 237.349 980.001 237.39Z" fill="#6C63FF"/>
<path id="Vector_127" opacity="0.2" d="M970.439 164.46C973.599 163.91 973.839 168.51 970.689 169.21C969.859 169.39 969.029 169.53 968.239 169.67C958.569 171.32 949.319 176.05 940.419 180.98C938.229 182.19 935.939 183.53 934.609 185.64C938.833 180.66 943.938 176.5 949.669 173.37C955.308 170.276 961.167 167.602 967.199 165.37C968.246 164.957 969.331 164.652 970.439 164.46Z" fill="#6C63FF"/>
<path id="Vector_128" opacity="0.2" d="M888.22 385.55C887.51 388.67 883.17 387.12 883.74 383.94C883.89 383.11 884.08 382.29 884.26 381.51C886.47 371.95 885.67 361.59 884.55 351.51C884.27 349.02 883.93 346.39 882.49 344.35C885.45 350.161 887.317 356.465 888 362.95C888.662 369.341 888.856 375.771 888.58 382.19C888.57 383.319 888.45 384.445 888.22 385.55Z" fill="#6C63FF"/>
<path id="Vector_129" opacity="0.5" d="M968.411 364.76C970.881 368.94 964.821 368.66 962.161 364.47C961.461 363.38 960.821 362.28 960.211 361.23C952.691 348.45 941.211 335.81 929.751 323.6C926.931 320.6 923.871 317.45 920.311 315.45C929.312 321.577 937.612 328.677 945.061 336.62C952.451 344.35 958.981 352.4 965.371 360.44C966.48 361.81 967.496 363.253 968.411 364.76Z" fill="#6C63FF"/>
<path id="Vector_130" opacity="0.2" d="M748.999 364.76C746.529 368.94 752.589 368.66 755.259 364.47C755.949 363.38 756.589 362.28 757.209 361.23C764.719 348.45 776.149 335.81 787.669 323.6C790.489 320.6 793.549 317.45 797.109 315.45C788.097 321.576 779.787 328.675 772.329 336.62C764.939 344.35 758.409 352.4 752.019 360.44C750.917 361.811 749.908 363.254 748.999 364.76Z" fill="#6C63FF"/>
<path id="Vector_131" opacity="0.2" d="M829.22 385.55C829.93 388.67 834.22 387.12 833.7 383.94C833.55 383.11 833.36 382.29 833.18 381.51C830.97 371.95 831.77 361.59 832.89 351.51C833.17 349.02 833.51 346.39 834.95 344.35C831.984 350.169 830.113 356.484 829.43 362.98C828.768 369.371 828.574 375.801 828.85 382.22C828.865 383.339 828.989 384.455 829.22 385.55Z" fill="#6C63FF"/>
<path id="Vector_132" opacity="0.2" d="M945.16 195.85C948.31 195.3 948.55 199.91 945.4 200.6C944.58 200.79 943.75 200.92 942.96 201.06C933.29 202.71 924.04 207.44 915.13 212.37C912.95 213.59 910.65 214.92 909.33 217.03C913.54 212.06 918.624 207.901 924.33 204.76C929.976 201.674 935.838 199 941.87 196.76C942.935 196.353 944.037 196.049 945.16 195.85Z" fill="#6C63FF"/>
<path id="Vector_133" opacity="0.2" d="M915.66 134.22C918.39 132.53 920.33 136.71 917.66 138.53C916.96 139.01 916.24 139.45 915.56 139.87C907.21 145.01 900.4 152.87 893.98 160.76C892.41 162.7 890.78 164.76 890.34 167.25C892.394 161.056 895.57 155.294 899.71 150.25C903.796 145.288 908.238 140.629 913 136.31C913.818 135.53 914.709 134.831 915.66 134.22Z" fill="#6C63FF"/>
<path id="Vector_134" d="M1019.2 286.38C1027.2 290.51 1020.44 301.83 1012.2 298.07C1010.04 297.07 1007.94 295.99 1005.93 294.94C981.45 282.24 953 277.57 925.02 273.94C918.16 273.06 910.84 272.29 904.49 275.01C921.8 270.12 940.23 269.72 958.05 271.79C975.87 273.86 993.2 278.33 1010.36 283.04C1013.41 283.853 1016.37 284.972 1019.2 286.38Z" fill="#6C63FF"/>
<path id="Vector_135" opacity="0.5" d="M996.309 330.45C1002.07 335.82 993.079 342.17 987.039 337.01C985.449 335.66 983.949 334.23 982.509 332.88C964.959 316.41 941.769 304.68 918.679 293.88C913.009 291.23 889.679 288.52 883.449 288.67C899.719 290.12 932.949 295.2 947.719 301.92C962.489 308.64 976.169 316.97 989.629 325.44C992.008 326.897 994.245 328.574 996.309 330.45Z" fill="#6C63FF"/>
<path id="Vector_136" d="M928.46 409.62C929.17 417.46 918.23 416.19 917.17 408.32C916.9 406.26 916.73 404.2 916.56 402.23C914.47 378.23 905.01 354.04 895.01 330.59C892.56 324.84 877.01 307.26 872.24 303.21C883.39 315.15 904.76 341.1 911.24 355.95C917.72 370.8 922.4 386.14 926.79 401.43C927.598 404.103 928.157 406.844 928.46 409.62Z" fill="#6C63FF"/>
<path id="Vector_137" d="M935.001 144.35C934.794 144.47 934.56 144.539 934.321 144.55C933.891 144.55 933.581 144.11 933.401 143.71C932.401 141.59 932.981 138.83 931.481 137.03C929.948 138.873 928.713 140.945 927.821 143.17L922.061 141.39C921.79 142.505 921.747 143.664 921.935 144.796C922.122 145.928 922.536 147.011 923.151 147.98C922.141 148.42 921.223 149.044 920.441 149.82C920.053 150.214 919.782 150.707 919.656 151.245C919.531 151.783 919.557 152.346 919.731 152.87C921.062 153.193 922.432 153.328 923.801 153.27C923.583 155.798 923.728 158.343 924.231 160.83C924.24 161.021 924.289 161.209 924.373 161.38C924.457 161.552 924.575 161.705 924.721 161.83C924.955 161.923 925.211 161.949 925.459 161.907C925.708 161.865 925.94 161.755 926.131 161.59C928.118 160.366 929.749 158.642 930.861 156.59L933.001 161.62C933.16 162.158 933.517 162.616 934.001 162.9C934.324 163.015 934.677 163.018 935.002 162.907C935.327 162.797 935.605 162.579 935.791 162.29C936.146 161.7 936.361 161.036 936.421 160.35L937.221 155.48C937.241 155.228 937.335 154.988 937.491 154.79C937.735 154.609 938.038 154.524 938.341 154.55C940.341 154.49 942.371 154.47 944.431 154.49C944.781 153.41 943.701 152.4 942.671 151.95C941.641 151.5 940.391 151.15 939.871 150.14C938.811 148.09 941.551 145.23 940.391 143.45C939.001 141.42 936.791 143.47 935.001 144.35Z" fill="#6C63FF"/>
<path id="Vector_138" opacity="0.2" d="M952.379 381.35C952.176 381.479 951.94 381.549 951.699 381.55C951.269 381.55 950.959 381.12 950.779 380.72C949.779 378.59 950.359 375.83 948.859 374.04C947.325 375.879 946.09 377.947 945.199 380.17L939.439 378.39C939.169 379.507 939.126 380.667 939.314 381.801C939.501 382.935 939.914 384.019 940.529 384.99C939.518 385.427 938.598 386.051 937.819 386.83C937.441 387.219 937.174 387.704 937.049 388.232C936.924 388.76 936.945 389.313 937.109 389.83C938.44 390.156 939.81 390.294 941.179 390.24C940.962 392.768 941.107 395.313 941.609 397.8C941.597 398.026 941.657 398.249 941.78 398.439C941.903 398.629 942.083 398.774 942.294 398.855C942.505 398.936 942.736 398.949 942.954 398.89C943.173 398.832 943.367 398.706 943.509 398.53C945.496 397.306 947.127 395.582 948.239 393.53L950.379 398.64C950.541 399.177 950.897 399.633 951.379 399.92C951.704 400.033 952.057 400.033 952.382 399.92C952.706 399.808 952.984 399.589 953.169 399.3C953.525 398.71 953.741 398.046 953.799 397.36L954.599 392.49C954.619 392.241 954.713 392.004 954.869 391.81C955.111 391.622 955.414 391.533 955.719 391.56C957.719 391.513 959.749 391.493 961.809 391.5C962.159 390.42 961.079 389.42 960.049 388.96C959.019 388.5 957.769 388.17 957.249 387.16C956.189 385.1 958.929 382.24 957.769 380.47C956.369 378.42 954.149 380.47 952.379 381.35Z" fill="#6C63FF"/>
<path id="Vector_139" d="M1001.15 222.49C1000.94 222.609 1000.71 222.677 1000.47 222.69C1000.03 222.69 999.729 222.25 999.549 221.85C998.549 219.72 999.129 216.96 997.619 215.17C996.087 217.013 994.852 219.085 993.959 221.31L988.209 219.52C987.939 220.637 987.896 221.797 988.083 222.931C988.27 224.065 988.684 225.149 989.299 226.12C988.288 226.558 987.369 227.182 986.589 227.96C986.201 228.354 985.93 228.847 985.805 229.385C985.679 229.923 985.705 230.485 985.879 231.01C987.211 231.333 988.581 231.467 989.949 231.41C989.732 233.938 989.877 236.483 990.379 238.97C990.386 239.162 990.433 239.35 990.517 239.522C990.602 239.695 990.722 239.847 990.869 239.97C991.289 240.24 991.869 239.97 992.279 239.74C994.266 238.516 995.897 236.792 997.009 234.74L999.149 239.85C999.301 240.377 999.638 240.832 1000.1 241.13C1000.43 241.243 1000.78 241.244 1001.11 241.131C1001.43 241.019 1001.71 240.8 1001.9 240.51C1002.26 239.921 1002.47 239.257 1002.53 238.57L1003.33 233.71C1003.34 233.457 1003.44 233.216 1003.6 233.02C1003.84 232.835 1004.14 232.746 1004.45 232.77C1006.45 232.723 1008.48 232.703 1010.54 232.71C1010.89 231.63 1009.81 230.63 1008.77 230.18C1007.73 229.73 1006.5 229.38 1005.98 228.37C1004.92 226.31 1007.66 223.45 1006.5 221.68C1005.14 219.55 1002.92 221.62 1001.15 222.49Z" fill="#6C63FF"/>
<path id="Vector_140" d="M806.169 405.12C805.886 405.294 805.561 405.39 805.229 405.4C804.619 405.4 804.229 404.79 803.939 404.24C802.579 401.24 803.359 397.43 801.259 394.93C799.125 397.497 797.404 400.382 796.159 403.48L788.159 401C787.781 402.554 787.721 404.168 787.982 405.745C788.243 407.323 788.82 408.831 789.679 410.18C788.269 410.791 786.986 411.663 785.899 412.75C785.356 413.297 784.975 413.983 784.798 414.734C784.622 415.484 784.657 416.268 784.899 417C786.75 417.451 788.655 417.639 790.559 417.56C790.263 421.084 790.465 424.632 791.159 428.1C791.205 428.619 791.453 429.1 791.849 429.44C792.439 429.81 793.209 429.44 793.849 429.11C796.622 427.393 798.898 424.979 800.449 422.11L803.449 429.23C803.658 429.967 804.132 430.601 804.779 431.01C805.232 431.166 805.724 431.165 806.177 431.01C806.63 430.854 807.018 430.551 807.279 430.15C807.777 429.33 808.078 428.406 808.159 427.45L809.279 420.67C809.284 420.304 809.415 419.951 809.649 419.67C809.985 419.411 810.407 419.289 810.829 419.33C813.662 419.25 816.492 419.22 819.319 419.24C819.809 417.74 818.319 416.34 816.859 415.71C815.399 415.08 813.689 414.59 812.969 413.19C811.489 410.32 815.309 406.34 813.689 403.87C811.729 401.04 808.639 403.9 806.169 405.12Z" fill="#6C63FF"/>
<path id="Vector_141" d="M725.051 227.23C724.764 227.404 724.436 227.5 724.101 227.51C723.501 227.51 723.101 226.9 722.821 226.34C721.451 223.34 722.241 219.53 720.141 217.03C717.989 219.607 716.254 222.505 715.001 225.62L707.001 223.14C706.623 224.695 706.563 226.31 706.822 227.888C707.081 229.467 707.656 230.978 708.511 232.33C707.105 232.944 705.826 233.816 704.741 234.9C704.2 235.447 703.821 236.131 703.645 236.879C703.468 237.627 703.502 238.41 703.741 239.14C705.596 239.589 707.504 239.781 709.411 239.71C709.11 243.231 709.312 246.776 710.011 250.24C710.03 250.498 710.101 250.75 710.22 250.98C710.338 251.21 710.502 251.414 710.701 251.58C711.291 251.96 712.061 251.58 712.651 251.26C715.428 249.547 717.704 247.133 719.251 244.26L722.251 251.38C722.462 252.116 722.93 252.751 723.571 253.17C724.025 253.325 724.518 253.323 724.971 253.165C725.424 253.008 725.811 252.703 726.071 252.3C726.571 251.48 726.875 250.556 726.961 249.6L728.071 242.82C728.09 242.457 728.219 242.108 728.441 241.82C728.781 241.561 729.206 241.44 729.631 241.48C732.464 241.4 735.294 241.373 738.121 241.4C738.601 239.89 737.121 238.49 735.651 237.86C734.181 237.23 732.491 236.75 731.761 235.34C730.291 232.48 734.111 228.49 732.481 226.02C730.611 223.14 727.521 226 725.051 227.23Z" fill="#6C63FF"/>
<path id="Vector_142" opacity="0.2" d="M971.21 337.39C971.057 337.485 970.881 337.537 970.7 337.54C970.38 337.54 970.16 337.22 970.02 336.92C969.3 335.35 969.71 333.31 968.6 331.98C967.468 333.344 966.553 334.876 965.89 336.52L961.63 335.2C961.43 336.026 961.398 336.883 961.535 337.721C961.672 338.56 961.977 339.362 962.43 340.08C961.685 340.409 961.007 340.874 960.43 341.45C960.144 341.74 959.943 342.104 959.851 342.501C959.76 342.899 959.78 343.314 959.91 343.7C960.891 343.94 961.901 344.041 962.91 344C962.756 345.872 962.864 347.757 963.23 349.6C963.257 349.876 963.39 350.13 963.6 350.31C963.91 350.51 964.32 350.31 964.6 350.14C966.074 349.23 967.281 347.946 968.1 346.42L969.69 350.2C969.797 350.593 970.047 350.932 970.39 351.15C970.632 351.233 970.894 351.233 971.135 351.15C971.376 351.066 971.582 350.904 971.72 350.69C971.987 350.257 972.149 349.767 972.19 349.26L972.78 345.65C972.794 345.467 972.864 345.292 972.98 345.15C973.159 345.01 973.385 344.946 973.61 344.97C975.11 344.92 976.61 344.91 978.12 344.92C978.38 344.12 977.58 343.38 976.81 343.04C976.04 342.7 975.13 342.45 974.74 341.71C973.96 340.18 975.99 338.07 975.13 336.71C974.16 335.22 972.52 336.74 971.21 337.39Z" fill="#6C63FF"/>
<path id="Vector_143" opacity="0.2" d="M861 401.02C860.849 401.113 860.677 401.165 860.5 401.17C860.17 401.17 859.95 400.84 859.81 400.55C859.09 398.97 859.51 396.93 858.39 395.6C857.257 396.964 856.343 398.496 855.68 400.14L851.42 398.82C851.219 399.648 851.187 400.507 851.326 401.348C851.465 402.188 851.773 402.991 852.23 403.71C851.484 404.034 850.805 404.495 850.23 405.07C849.944 405.361 849.744 405.725 849.652 406.122C849.561 406.519 849.581 406.934 849.71 407.32C850.691 407.559 851.701 407.66 852.71 407.62C852.551 409.492 852.659 411.378 853.03 413.22C853.038 413.357 853.074 413.49 853.136 413.612C853.198 413.735 853.284 413.843 853.39 413.93C853.7 414.13 854.11 413.93 854.39 413.76C855.866 412.85 857.077 411.567 857.9 410.04L859.48 413.83C859.594 414.22 859.846 414.554 860.19 414.77C860.428 414.855 860.689 414.857 860.928 414.776C861.168 414.694 861.373 414.533 861.51 414.32C861.776 413.883 861.936 413.39 861.98 412.88L862.58 409.28C862.59 409.095 862.656 408.917 862.77 408.77C862.948 408.63 863.174 408.566 863.4 408.59C864.9 408.59 866.4 408.53 867.91 408.54C868.17 407.74 867.37 407 866.6 406.66C865.83 406.32 864.92 406.07 864.54 405.33C863.75 403.8 865.78 401.69 864.92 400.38C864 398.85 862.32 400.36 861 401.02Z" fill="#6C63FF"/>
<path id="Vector_144" opacity="0.5" d="M754.36 178.33C754.209 178.423 754.037 178.475 753.86 178.48C753.54 178.48 753.31 178.15 753.18 177.86C752.45 176.29 752.87 174.24 751.75 172.91C750.617 174.277 749.703 175.812 749.04 177.46L744.78 176.14C744.579 176.966 744.547 177.824 744.687 178.663C744.826 179.501 745.133 180.303 745.59 181.02C744.844 181.344 744.165 181.805 743.59 182.38C743.306 182.674 743.108 183.04 743.016 183.438C742.925 183.836 742.943 184.251 743.07 184.64C744.051 184.879 745.061 184.98 746.07 184.94C745.911 186.809 746.018 188.691 746.39 190.53C746.397 190.668 746.432 190.804 746.494 190.928C746.556 191.052 746.643 191.161 746.75 191.25C746.917 191.312 747.099 191.328 747.274 191.296C747.45 191.265 747.614 191.187 747.75 191.07C749.224 190.161 750.434 188.882 751.26 187.36L752.84 191.14C752.942 191.551 753.196 191.908 753.55 192.14C753.791 192.221 754.053 192.22 754.293 192.137C754.534 192.054 754.74 191.893 754.88 191.68C755.14 191.24 755.3 190.748 755.35 190.24L756 186.62C756.013 186.434 756.083 186.256 756.2 186.11C756.381 185.976 756.605 185.912 756.83 185.93C758.33 185.93 759.83 185.93 761.33 185.93C761.59 185.13 760.79 184.39 760.03 184.05C759.27 183.71 758.34 183.46 757.96 182.71C757.17 181.19 759.2 179.07 758.34 177.76C757.31 176.16 755.68 177.68 754.36 178.33Z" fill="#6C63FF"/>
<path id="Vector_145" opacity="0.5" d="M811.12 303.82C810.969 303.913 810.797 303.965 810.62 303.97C810.3 303.97 810.07 303.64 809.94 303.35C809.21 301.77 809.63 299.73 808.51 298.35C807.374 299.714 806.463 301.25 805.81 302.9L801.54 301.62C801.341 302.446 801.311 303.304 801.45 304.142C801.589 304.98 801.895 305.782 802.35 306.5C801.605 306.827 800.927 307.288 800.35 307.86C800.066 308.154 799.868 308.52 799.776 308.918C799.684 309.316 799.703 309.732 799.83 310.12C800.811 310.359 801.821 310.46 802.83 310.42C802.671 312.289 802.779 314.171 803.15 316.01C803.141 316.176 803.186 316.341 803.276 316.48C803.367 316.619 803.499 316.727 803.654 316.786C803.809 316.846 803.979 316.856 804.14 316.813C804.301 316.771 804.444 316.679 804.55 316.55C806.023 315.641 807.233 314.362 808.06 312.84L809.64 316.62C809.759 317.009 810.01 317.345 810.35 317.57C810.591 317.652 810.852 317.651 811.093 317.567C811.334 317.484 811.54 317.323 811.68 317.11C811.948 316.674 812.109 316.181 812.15 315.67L812.74 312.07C812.753 311.884 812.823 311.706 812.94 311.56C813.12 311.424 813.345 311.36 813.57 311.38C815.07 311.38 816.57 311.32 818.08 311.38C818.33 310.58 817.54 309.84 816.77 309.5C816 309.16 815.09 308.91 814.7 308.16C813.92 306.64 815.94 304.52 815.08 303.21C814.08 301.62 812.44 303.17 811.12 303.82Z" fill="#6C63FF"/>
<path id="Vector_146" opacity="0.5" d="M769.931 254.9C769.78 254.993 769.608 255.045 769.431 255.05C769.101 255.05 768.881 254.72 768.741 254.43C768.021 252.85 768.441 250.81 767.321 249.48C766.185 250.846 765.271 252.381 764.611 254.03L760.351 252.71C760.151 253.536 760.119 254.393 760.256 255.231C760.394 256.069 760.698 256.871 761.151 257.59C760.406 257.915 759.727 258.377 759.151 258.95C758.864 259.242 758.664 259.608 758.572 260.007C758.48 260.406 758.501 260.822 758.631 261.21C759.612 261.449 760.622 261.55 761.631 261.51C761.472 263.379 761.58 265.261 761.951 267.1C761.935 267.269 761.975 267.438 762.065 267.582C762.154 267.727 762.288 267.838 762.447 267.899C762.605 267.96 762.779 267.968 762.942 267.921C763.105 267.874 763.249 267.776 763.351 267.64C764.824 266.733 766.031 265.453 766.851 263.93L768.441 267.71C768.546 268.119 768.799 268.475 769.151 268.71C769.391 268.791 769.65 268.789 769.889 268.706C770.128 268.623 770.333 268.462 770.471 268.25C770.739 267.814 770.9 267.32 770.941 266.81L771.541 263.21C771.55 263.025 771.617 262.847 771.731 262.7C771.911 262.565 772.136 262.501 772.361 262.52C773.861 262.52 775.361 262.46 776.871 262.52C777.131 261.72 776.331 260.98 775.561 260.64C774.791 260.3 773.881 260.05 773.501 259.3C772.711 257.78 774.741 255.66 773.881 254.35C772.881 252.73 771.241 254.25 769.931 254.9Z" fill="#6C63FF"/>
<path id="Vector_147" opacity="0.5" d="M946.86 266.42C946.71 266.513 946.537 266.565 946.36 266.57C946.04 266.57 945.82 266.24 945.68 265.95C944.95 264.37 945.37 262.33 944.26 261C943.122 262.364 942.207 263.899 941.55 265.55L937.29 264.23C937.091 265.056 937.058 265.913 937.196 266.751C937.333 267.589 937.638 268.391 938.09 269.11C937.346 269.436 936.668 269.898 936.09 270.47C935.808 270.765 935.61 271.13 935.518 271.528C935.427 271.926 935.445 272.341 935.57 272.73C936.553 272.963 937.562 273.064 938.57 273.03C938.412 274.899 938.52 276.781 938.89 278.62C938.879 278.788 938.922 278.956 939.013 279.098C939.104 279.241 939.238 279.35 939.396 279.41C939.554 279.471 939.727 279.479 939.89 279.434C940.052 279.389 940.196 279.293 940.3 279.16C941.771 278.251 942.978 276.971 943.8 275.45L945.39 279.23C945.503 279.62 945.751 279.957 946.09 280.18C946.332 280.261 946.593 280.26 946.834 280.177C947.075 280.094 947.281 279.933 947.42 279.72C947.688 279.283 947.849 278.79 947.89 278.28L948.48 274.68C948.494 274.494 948.564 274.316 948.68 274.17C948.861 274.034 949.085 273.97 949.31 273.99C950.81 273.99 952.31 273.93 953.82 273.94C954.07 273.15 953.28 272.4 952.51 272.07C951.74 271.74 950.83 271.48 950.44 270.73C949.66 269.21 951.69 267.09 950.82 265.78C949.82 264.25 948.18 265.77 946.86 266.42Z" fill="#6C63FF"/>
<path id="Vector_148" opacity="0.2" d="M861.001 256.79C860.85 256.883 860.678 256.935 860.501 256.94C860.171 256.94 859.951 256.62 859.811 256.32C859.091 254.75 859.511 252.71 858.391 251.38C857.258 252.744 856.344 254.275 855.681 255.92L851.431 254.62C851.23 255.446 851.198 256.304 851.337 257.143C851.476 257.981 851.784 258.783 852.241 259.5C851.494 259.828 850.816 260.292 850.241 260.87C849.954 261.16 849.754 261.524 849.662 261.921C849.57 262.318 849.591 262.733 849.721 263.12C850.702 263.359 851.712 263.46 852.721 263.42C852.562 265.292 852.67 267.178 853.041 269.02C853.049 269.157 853.085 269.29 853.147 269.412C853.209 269.534 853.296 269.642 853.401 269.73C853.711 269.93 854.121 269.73 854.401 269.56C855.909 268.652 857.151 267.362 858.001 265.82L859.581 269.6C859.694 269.992 859.947 270.33 860.291 270.55C860.531 270.632 860.791 270.632 861.031 270.548C861.27 270.465 861.474 270.304 861.611 270.09C861.856 269.638 861.99 269.134 862.001 268.62L862.601 265.01C862.611 264.828 862.677 264.653 862.791 264.51C862.971 264.372 863.195 264.304 863.421 264.32C864.921 264.32 866.421 264.27 867.931 264.32C868.191 263.52 867.391 262.78 866.621 262.44C865.851 262.1 864.941 261.85 864.561 261.11C863.771 259.58 865.801 257.47 864.941 256.11C864.001 254.62 862.321 256.14 861.001 256.79Z" fill="#6C63FF"/>
<path id="Vector_149" opacity="0.3" d="M834.069 268.51C833.916 268.605 833.74 268.657 833.559 268.66C833.239 268.66 833.019 268.34 832.879 268.04C832.159 266.47 832.569 264.43 831.459 263.1C830.326 264.464 829.412 265.996 828.749 267.64L824.489 266.32C824.289 267.146 824.256 268.003 824.394 268.841C824.531 269.68 824.836 270.482 825.289 271.2C824.543 271.529 823.865 271.994 823.289 272.57C823.004 272.861 822.803 273.224 822.71 273.621C822.616 274.018 822.633 274.432 822.759 274.82C823.74 275.058 824.75 275.159 825.759 275.12C825.605 276.993 825.713 278.877 826.079 280.72C826.106 280.996 826.239 281.25 826.449 281.43C826.759 281.63 827.169 281.43 827.449 281.26C828.923 280.35 830.13 279.067 830.949 277.54L832.539 281.32C832.646 281.713 832.895 282.052 833.239 282.27C833.48 282.355 833.743 282.356 833.984 282.272C834.226 282.189 834.432 282.026 834.569 281.81C834.836 281.377 834.997 280.887 835.039 280.38L835.629 276.78C835.64 276.593 835.71 276.415 835.829 276.27C836.008 276.13 836.234 276.066 836.459 276.09C837.959 276.04 839.459 276.03 840.969 276.04C841.229 275.24 840.429 274.5 839.659 274.16C838.889 273.82 837.979 273.57 837.589 272.83C836.809 271.3 838.839 269.19 837.979 267.83C836.999 266.34 835.379 267.86 834.069 268.51Z" fill="#6C63FF"/>
<path id="Vector_150" opacity="0.2" d="M809 197.62C808.85 197.713 808.677 197.765 808.5 197.77C808.18 197.77 807.96 197.45 807.82 197.15C807.09 195.58 807.51 193.53 806.4 192.21C805.264 193.571 804.349 195.104 803.69 196.75L799.43 195.43C799.23 196.256 799.198 197.113 799.336 197.951C799.473 198.789 799.777 199.591 800.23 200.31C799.484 200.633 798.805 201.094 798.23 201.67C797.945 201.963 797.745 202.328 797.651 202.726C797.558 203.125 797.575 203.541 797.7 203.93C798.681 204.168 799.691 204.269 800.7 204.23C800.541 206.099 800.649 207.981 801.02 209.82C801.048 210.098 801.18 210.356 801.39 210.54C801.7 210.74 802.11 210.54 802.39 210.36C803.863 209.453 805.071 208.173 805.89 206.65L807.48 210.43C807.579 210.84 807.829 211.197 808.18 211.43C808.421 211.513 808.683 211.513 808.925 211.43C809.166 211.346 809.372 211.184 809.51 210.97C809.777 210.537 809.938 210.047 809.98 209.54L810.57 205.93C810.584 205.744 810.653 205.566 810.77 205.42C810.954 205.291 811.176 205.228 811.4 205.24C812.9 205.24 814.4 205.24 815.91 205.24C816.16 204.44 815.37 203.7 814.6 203.36C813.83 203.02 812.92 202.77 812.53 202.02C811.75 200.5 813.78 198.38 812.91 197.07C811.91 195.41 810.27 196.93 809 197.62Z" fill="#6C63FF"/>
<path id="Vector_151" opacity="0.3" d="M858.42 290.14C858.27 290.233 858.097 290.285 857.92 290.29C857.762 290.257 857.615 290.183 857.495 290.073C857.375 289.964 857.287 289.825 857.24 289.67C856.51 288.1 856.93 286.05 855.81 284.73C854.678 286.094 853.763 287.626 853.1 289.27L848.84 287.95C848.642 288.776 848.612 289.634 848.751 290.472C848.89 291.31 849.196 292.112 849.65 292.83C848.906 293.158 848.229 293.619 847.65 294.19C847.367 294.484 847.168 294.85 847.077 295.248C846.985 295.646 847.004 296.062 847.13 296.45C848.112 296.689 849.121 296.79 850.13 296.75C849.971 298.619 850.079 300.501 850.45 302.34C850.457 302.478 850.493 302.614 850.555 302.738C850.617 302.862 850.704 302.971 850.81 303.06C850.977 303.123 851.158 303.141 851.334 303.111C851.509 303.081 851.674 303.005 851.81 302.89C853.283 301.975 854.493 300.693 855.32 299.17L856.9 302.95C857.014 303.342 857.266 303.68 857.61 303.9C857.852 303.983 858.114 303.983 858.355 303.9C858.596 303.816 858.802 303.654 858.94 303.44C859.199 303.003 859.359 302.515 859.41 302.01L860 298.4C859.996 298.296 860.016 298.192 860.059 298.097C860.101 298.001 860.165 297.917 860.245 297.85C860.325 297.784 860.42 297.736 860.521 297.712C860.623 297.688 860.729 297.687 860.83 297.71C862.33 297.71 863.83 297.71 865.33 297.71C865.59 296.91 864.79 296.17 864.03 295.83C863.27 295.49 862.34 295.24 861.96 294.49C861.18 292.97 863.2 290.85 862.34 289.54C861.37 287.97 859.74 289.49 858.42 290.14Z" fill="#6C63FF"/>
</g>
</g>
<defs>
<linearGradient id="paint0_linear_4_159" x1="403.811" y1="690.64" x2="403.811" y2="168.77" gradientUnits="userSpaceOnUse">
<stop stop-color="#808080" stop-opacity="0.25"/>
<stop offset="0.54" stop-color="#808080" stop-opacity="0.12"/>
<stop offset="1" stop-color="#808080" stop-opacity="0.1"/>
</linearGradient>
<clipPath id="clip0_4_159">
<rect width="1144" height="703.24" fill="white"/>
</clipPath>
</defs>
</svg>
